<?xml version="1.0" standalone="no"?>
<!DOCTYPE svg PUBLIC "-//W3C//DTD SVG 1.1//EN" "http://www.w3.org/Graphics/SVG/1.1/DTD/svg11.dtd" >
<svg xmlns="http://www.w3.org/2000/svg" xmlns:xlink="http://www.w3.org/1999/xlink" version="1.1">
<metadata>
Created by FontForge 20201107 at Thu Feb  8 12:52:35 2024
 By 
(c)2015 Now Typeface is a trademark of Alfredo Marco Pradil. All rights reserved.
</metadata>
<defs>
<font id="Now-Light" horiz-adv-x="0" >
  <font-face 
    font-family="Now Light"
    font-weight="300"
    font-stretch="normal"
    units-per-em="2048"
    panose-1="0 0 4 0 0 0 0 0 0 0"
    ascent="1638"
    descent="-410"
    x-height="1024"
    cap-height="1536"
    bbox="-1536 -620 2138 2396"
    underline-thickness="128"
    underline-position="-256"
    unicode-range="U+0020-FB02"
  />
<missing-glyph horiz-adv-x="1233" 
d="M215 0v1536h804v-1536h-804zM310 97h614v1342h-614v-1342z" />
    <glyph glyph-name="fi" unicode="fi" horiz-adv-x="1272" 
d="M379 1603v-579h281v-118h-281v-906h-120v906h-172v118h172v594q0 109 80 187.5t191 78.5q77 0 128 -33v-90l-115 5q-69 0 -116.5 -46t-47.5 -117zM991 1408q39 0 66.5 -27.5t27.5 -67.5q0 -38 -28 -65t-66 -27q-39 0 -67 27t-28 65q0 40 28 67.5t67 27.5zM932 0v1024h118
v-1024h-118z" />
    <glyph glyph-name="fl" unicode="fl" horiz-adv-x="1228" 
d="M379 1603v-579h281v-118h-281v-906h-120v906h-172v118h172v594q0 109 80 187.5t191 78.5q77 0 128 -33v-90l-115 5q-69 0 -116.5 -46t-47.5 -117zM909 1884h120v-1884h-120v1884z" />
    <glyph glyph-name="f_t.liga" unicode="ft" horiz-adv-x="1338" 
d="M1244 906h-281v-645q0 -72 47 -118t116 -46h116v-84q-51 -33 -128 -33q-111 0 -191.5 78.5t-80.5 187.5v660h-463v-906h-120v906h-172v118h172v594q0 109 80 187.5t191 78.5q77 0 128 -33v-90l-115 5q-69 0 -116.5 -46t-47.5 -117v-579h463v445h121v-445h281v-118z" />
    <glyph glyph-name=".notdef" horiz-adv-x="1233" 
d="M215 0v1536h804v-1536h-804zM310 97h614v1342h-614v-1342z" />
    <glyph glyph-name=".null" 
 />
    <glyph glyph-name="nonmarkingreturn" horiz-adv-x="682" 
 />
    <glyph glyph-name="space" unicode=" " horiz-adv-x="629" 
 />
    <glyph glyph-name="exclam" unicode="!" horiz-adv-x="616" 
d="M259 415l-11 1305h121l-13 -1305h-97zM310 -20q-38 0 -66.5 28t-28.5 66t28.5 66.5t66.5 28.5q37 0 64.5 -28.5t27.5 -66.5t-27.5 -66t-64.5 -28z" />
    <glyph glyph-name="quotedbl" unicode="&#x22;" horiz-adv-x="855" 
d="M225 876l-10 680h113l-11 -680h-92zM535 876l-10 680h115l-10 -680h-95z" />
    <glyph glyph-name="numbersign" unicode="#" horiz-adv-x="1597" 
d="M402 0l51 366h-287l11 95h289l77 509h-292l15 92h287l54 369h89l-51 -369h405l51 369h95l-54 -369h292l-16 -92h-289l-69 -509h287l-13 -95h-287l-56 -366h-92l53 366h-407l-51 -366h-92zM561 461h404l72 509h-405z" />
    <glyph glyph-name="dollar" unicode="$" horiz-adv-x="1136" 
d="M596 855q164 -72 215 -100q162 -92 211 -219q25 -65 25 -144q0 -98 -38 -177.5t-103 -130t-149 -77.5t-178 -27q-169 0 -301 84t-188 220l112 64q42 -111 142 -178.5t237 -67.5q146 0 244.5 76.5t98.5 208.5q0 65 -26 117.5t-70.5 88.5t-102 67t-121 57.5t-126.5 54.5
t-120.5 64t-102 80t-70.5 108t-26 143q0 120 59 210t152.5 134.5t205.5 44.5q124 0 228 -51.5t166 -134.5l-97 -80q-46 65 -123.5 104.5t-170.5 39.5q-124 0 -210.5 -67.5t-86.5 -191.5q0 -55 18 -99.5t54.5 -78.5t76 -59t96.5 -52v174h118v-205h-49zM645 686v-205h-118v205
h118z" />
    <glyph glyph-name="percent" unicode="%" horiz-adv-x="1505" 
d="M412 947q-109 0 -186.5 90t-77.5 215t77.5 214.5t186.5 89.5q107 0 183 -89.5t76 -214.5t-76 -215t-183 -90zM159 0l1060 1536h128l-1060 -1536h-128zM412 1044q66 0 115 61.5t49 146.5t-49 146t-115 61q-69 0 -117.5 -60.5t-48.5 -146.5t48.5 -147t117.5 -61zM1096 -20
q-107 0 -184 89.5t-77 214.5t77 215t184 90q109 0 185 -90t76 -215t-76 -214.5t-185 -89.5zM1096 77q68 0 116 60.5t48 146.5t-48 147t-116 61t-116 -61t-48 -147t48 -146.5t116 -60.5z" />
    <glyph glyph-name="ampersand" unicode="&#x26;" horiz-adv-x="1384" 
d="M1270 840v-118h-149v-297q0 -186 -122 -305.5t-318 -119.5q-198 0 -333.5 118t-135.5 297q0 118 59 217t159 154q-94 59 -148 153.5t-54 207.5q0 168 115 278.5t279 110.5h348v-123h-330q-121 0 -206.5 -74.5t-85.5 -196.5q0 -130 90.5 -216t224.5 -86h341v274h117v-274
h149zM678 108q146 0 236 89t90 228v297h-369q-129 0 -218 -88t-89 -217q0 -135 101 -222t249 -87z" />
    <glyph glyph-name="quotesingle" unicode="'" horiz-adv-x="542" 
d="M225 957l-10 599h113l-11 -599h-92z" />
    <glyph glyph-name="parenleft" unicode="(" horiz-adv-x="798" 
d="M689 -545q-112 11 -203 85t-162 216t-110.5 374t-39.5 536q0 245 26 444t72 337.5t111 234.5t141 144t165 58v-87q-70 -12 -130 -58t-111.5 -135t-88 -217t-57 -311.5t-20.5 -409.5q0 -279 31 -492t87.5 -345t128.5 -202.5t160 -84.5v-87z" />
    <glyph glyph-name="parenright" unicode=")" horiz-adv-x="798" 
d="M108 -545v87q89 14 161.5 84.5t129 202.5t87.5 345t31 492q0 281 -31 495t-87.5 346.5t-129 203.5t-161.5 86v87q90 -10 166.5 -58t141.5 -144t111 -234.5t72 -337.5t26 -444q0 -305 -39 -536.5t-110.5 -373.5t-163 -216t-204.5 -85z" />
    <glyph glyph-name="asterisk" unicode="*" horiz-adv-x="721" 
d="M282 1075l-70 39l105 153l-184 -13v77l184 -13l-105 151l70 39l79 -161l82 161l66 -39l-105 -151l185 13v-77l-185 13l105 -153l-66 -39l-82 161z" />
    <glyph glyph-name="plus" unicode="+" horiz-adv-x="1699" 
d="M794 0v579h-579v112h579v579h112v-579h579v-112h-579v-579h-112z" />
    <glyph glyph-name="comma" unicode="," horiz-adv-x="435" 
d="M120 -338h-105l272 599h138z" />
    <glyph glyph-name="hyphen" unicode="-" horiz-adv-x="1013" 
d="M148 474v117h717v-117h-717z" />
    <glyph glyph-name="period" unicode="." horiz-adv-x="527" 
d="M264 -20q-46 0 -81 34t-35 81q0 45 35 78.5t81 33.5t80.5 -33.5t34.5 -78.5q0 -47 -34.5 -81t-80.5 -34z" />
    <glyph glyph-name="slash" unicode="/" horiz-adv-x="1364" 
d="M-33 -614l1313 2498h118l-1311 -2498h-120z" />
    <glyph glyph-name="zero" unicode="0" horiz-adv-x="1438" 
d="M719 -20q-171 0 -296 105t-187 281.5t-62 401.5t62 401.5t187 281.5t296 105q170 0 295 -105t188 -281.5t63 -401.5t-63 -401.5t-188 -281.5t-295 -105zM719 102q134 0 231 87.5t144.5 236.5t47.5 342t-47.5 342t-144.5 236.5t-231 87.5t-231 -88t-144 -236.5t-47 -341.5
t47 -341.5t144 -236.5t231 -88z" />
    <glyph glyph-name="one" unicode="1" horiz-adv-x="775" 
d="M376 0v1413h-256v123h379v-1536h-123z" />
    <glyph glyph-name="two" unicode="2" horiz-adv-x="1292" 
d="M353 123h812v-123h-1093l652 691q154 166 204 250t50 173q0 149 -90 233.5t-230 86.5q-143 4 -237 -84t-96 -236h-133q2 199 136 322.5t335 119.5q122 -2 220 -50.5t159 -144t66 -222.5q4 -87 -22 -160.5t-86 -155t-183 -214.5z" />
    <glyph glyph-name="three" unicode="3" horiz-adv-x="1262" 
d="M614 896q197 0 334 -131.5t137 -324.5q0 -125 -61.5 -230.5t-169 -167.5t-234.5 -62t-234.5 59.5t-169.5 162t-62 223.5l128 3q0 -136 99.5 -231t238.5 -95q141 0 240.5 100.5t99.5 242.5q0 141 -98.5 234.5t-241.5 93.5h-333l507 640h-640v123h885l-512 -640h87z" />
    <glyph glyph-name="four" unicode="4" horiz-adv-x="1269" 
d="M1116 445v-122h-169v-323h-123v323h-747l719 1213h151v-1091h169zM271 445h553v948z" />
    <glyph glyph-name="five" unicode="5" horiz-adv-x="1295" 
d="M643 1011q211 0 353.5 -147.5t142.5 -366.5q0 -222 -149 -369.5t-388 -147.5q-139 0 -269.5 54t-207.5 148l16 146h13q83 -118 201 -172t244 -54q188 0 302.5 112t114.5 280q0 169 -114.5 281.5t-281.5 112.5q-89 0 -169 -33.5t-139 -94.5l-110 67l92 704h758v-123h-650
l-67 -499q131 102 308 102z" />
    <glyph glyph-name="six" unicode="6" horiz-adv-x="1361" 
d="M1208 532q13 -215 -132 -374t-362 -173q-108 -7 -208.5 29t-175 101.5t-121.5 158.5t-53 197q-12 212 136 379l553 686h159l-466 -550q62 26 143 30q93 3 185 -31.5t166 -96.5t122.5 -155.5t53.5 -200.5zM709 105q174 11 282 133.5t97 291.5q-11 172 -135.5 281
t-297.5 98q-172 -11 -281 -136.5t-98 -298.5q7 -111 66.5 -198t156.5 -132.5t210 -38.5z" />
    <glyph glyph-name="seven" unicode="7" horiz-adv-x="1208" 
d="M118 1536h1014v-72l-832 -1464h-149l819 1413h-852v123z" />
    <glyph glyph-name="eight" unicode="8" horiz-adv-x="1198" 
d="M791 852q128 -52 206 -163.5t78 -250.5q0 -192 -138 -325t-338 -133q-199 0 -336.5 133t-137.5 325q0 139 77 250.5t205 163.5q-91 49 -144 135.5t-53 192.5q0 158 112 267t277 109t277 -109t112 -267q0 -106 -53 -192.5t-144 -135.5zM325 1165q0 -113 80.5 -192.5
t193.5 -79.5q115 0 194.5 79t79.5 193q0 115 -79.5 194.5t-194.5 79.5q-114 0 -194 -79.5t-80 -194.5zM599 90q146 0 248.5 104t102.5 251q0 146 -102.5 248.5t-248.5 102.5t-248.5 -102.5t-102.5 -248.5q0 -147 102.5 -251t248.5 -104z" />
    <glyph glyph-name="nine" unicode="9" horiz-adv-x="1361" 
d="M1208 1065q14 -206 -133 -379l-555 -686h-159l466 550q-62 -26 -143 -30q-93 -3 -185 31.5t-166.5 96.5t-123 155.5t-53.5 200.5q-13 215 133 374t364 173q144 9 269.5 -54t202 -178t83.5 -254zM709 627q172 11 281 136.5t98 298.5q-7 111 -66.5 198t-156.5 132.5
t-210 38.5q-174 -11 -282 -133.5t-97 -291.5q11 -172 135.5 -281t297.5 -98z" />
    <glyph glyph-name="colon" unicode=":" horiz-adv-x="629" 
d="M315 855q-38 0 -66.5 28.5t-28.5 66.5t28.5 66t66.5 28t66.5 -28t28.5 -66t-28.5 -66.5t-66.5 -28.5zM315 -20q-39 0 -67 27t-28 67q0 37 28.5 66t66.5 29t66.5 -29t28.5 -66q0 -40 -28 -67t-67 -27z" />
    <glyph glyph-name="semicolon" unicode=";" horiz-adv-x="673" 
d="M338 855q-38 0 -65 28t-27 67q0 38 27 66t65 28t66.5 -28t28.5 -66t-28.5 -66.5t-66.5 -28.5zM166 -338h-105l272 599h138z" />
    <glyph glyph-name="less" unicode="&#x3c;" horiz-adv-x="1559" 
d="M1344 1303v-105l-1027 -517l1027 -520v-107l-1129 571v112z" />
    <glyph glyph-name="equal" unicode="=" horiz-adv-x="1536" 
d="M154 691v85h1228v-85h-1228zM154 310v84h1228v-84h-1228z" />
    <glyph glyph-name="greater" unicode="&#x3e;" horiz-adv-x="1559" 
d="M215 1303l1129 -566v-112l-1129 -571v107l1027 520l-1027 517v105z" />
    <glyph glyph-name="question" unicode="?" horiz-adv-x="1218" 
d="M586 420v348q0 74 20.5 128t53 85.5t72.5 56.5t79.5 49t72 53.5t53 80.5t20.5 120q0 131 -88 215.5t-226 84.5q-126 0 -214 -79t-99 -200h-110q10 167 129 275.5t294 108.5q184 0 303 -114t119 -291q0 -79 -20.5 -139t-53 -97t-72 -65.5t-78.5 -52t-71.5 -49t-53 -63.5
t-20.5 -89v-366h-110zM650 -20q-39 0 -66.5 27t-27.5 67q0 37 28 66t66 29t66.5 -29t28.5 -66q0 -40 -28 -67t-67 -27z" />
    <glyph glyph-name="at" unicode="@" horiz-adv-x="1280" 
d="M1065 305h-85v84q-35 -46 -93.5 -76.5t-113.5 -30.5q-111 0 -187.5 74.5t-76.5 183.5q0 107 76.5 181.5t187.5 74.5q59 0 117.5 -32.5t89.5 -82.5v69q0 121 -88.5 205t-215.5 84q-184 0 -312 -138t-128 -338q0 -100 39.5 -189.5t106.5 -153t159.5 -101t195.5 -37.5h328
v-82h-328q-161 0 -295 74.5t-211 204t-77 284.5q0 115 41 219t110.5 179t166 119t204.5 44q164 0 276.5 -108.5t112.5 -265.5v-445zM794 358q70 0 120.5 38.5t65.5 100.5v87q-15 61 -65.5 99.5t-120.5 38.5q-81 0 -135.5 -52.5t-54.5 -129.5q0 -78 54.5 -130t135.5 -52z" />
    <glyph glyph-name="A" unicode="A" horiz-adv-x="1272" 
d="M1126 0l-130 371h-717l-131 -371h-135l555 1536h136l556 -1536h-134zM320 489h635l-318 901z" />
    <glyph glyph-name="B" unicode="B" horiz-adv-x="1333" 
d="M919 778q124 -39 201.5 -140t77.5 -236q0 -171 -119 -286.5t-291 -115.5h-588v1536h537q173 0 292.5 -115.5t119.5 -288.5q0 -120 -62.5 -213.5t-167.5 -140.5zM1027 1124q0 123 -88.5 206t-214.5 83h-401v-586h401q127 0 215 86.5t88 210.5zM773 123q127 0 214.5 84
t87.5 208q0 123 -87.5 208.5t-214.5 85.5h-450v-586h450z" />
    <glyph glyph-name="C" unicode="C" horiz-adv-x="1710" 
d="M929 -20q-160 0 -306 62.5t-251.5 168t-168 251.5t-62.5 306t62.5 306t168 251.5t251.5 168t306 62.5q217 0 398.5 -107t285.5 -289l-105 -59q-88 152 -242 242.5t-337 90.5q-136 0 -259 -52.5t-212 -141.5t-141.5 -212.5t-52.5 -259.5t52.5 -259.5t141.5 -212.5
t212 -141.5t259 -52.5q183 0 337 90.5t242 242.5l105 -59q-104 -182 -285.5 -289t-398.5 -107z" />
    <glyph glyph-name="D" unicode="D" horiz-adv-x="1507" 
d="M200 0v1536h399q157 0 299 -60.5t245 -163.5t163.5 -245t60.5 -299t-60.5 -299t-163.5 -245t-245 -163.5t-299 -60.5h-399zM323 123h273q133 0 253 49.5t206.5 135t137.5 205.5t51 255t-51 255t-137.5 205.5t-206.5 135t-253 49.5h-273v-1290z" />
    <glyph glyph-name="E" unicode="E" horiz-adv-x="1192" 
d="M1032 1416h-697v-589h610v-118h-610v-589h697v-120h-820v1536h820v-120z" />
    <glyph glyph-name="F" unicode="F" horiz-adv-x="1095" 
d="M1032 1416h-697v-589h610v-118h-610v-709h-123v1536h820v-120z" />
    <glyph glyph-name="G" unicode="G" horiz-adv-x="1866" 
d="M932 804h791v-36q0 -160 -62.5 -306t-168.5 -251.5t-252 -168t-306 -62.5q-161 0 -307.5 62.5t-251.5 168t-167 251.5t-62 306t62 306t167 251.5t251.5 168t307.5 62.5q216 0 398 -107.5t286 -288.5l-108 -59q-86 152 -239.5 242.5t-336.5 90.5q-136 0 -259 -52.5
t-212 -141.5t-141.5 -212.5t-52.5 -259.5t52.5 -259.5t141.5 -212.5t212 -141.5t259 -52.5q167 0 311.5 77t237 210.5t112.5 296.5h-663v118z" />
    <glyph glyph-name="H" unicode="H" horiz-adv-x="1543" 
d="M1221 1536h123v-1536h-123v707h-898v-707h-123v1536h123v-707h898v707z" />
    <glyph glyph-name="I" unicode="I" horiz-adv-x="545" 
d="M212 0v1536h123v-1536h-123z" />
    <glyph glyph-name="J" unicode="J" horiz-adv-x="1018" 
d="M852 1536v-1162q0 -174 -106 -284t-272 -110q-153 0 -255 91.5t-122 245.5l126 29q11 -107 81 -175.5t170 -68.5q110 0 183 80t73 202v1029h-569v123h691z" />
    <glyph glyph-name="K" unicode="K" horiz-adv-x="1254" 
d="M1096 0l-668 771h-105v-771h-123v1536h123v-648h102l648 648h169l-710 -707l735 -829h-171z" />
    <glyph glyph-name="L" unicode="L" horiz-adv-x="936" 
d="M323 123h586v-123h-709v1536h123v-1413z" />
    <glyph glyph-name="M" unicode="M" horiz-adv-x="1884" 
d="M1559 1536h125v-1536h-120v1290l-573 -1290h-100l-568 1285v-1285h-123v1536h128l614 -1390z" />
    <glyph glyph-name="N" unicode="N" horiz-adv-x="1623" 
d="M1300 1536h123v-1536h-107l-993 1318v-1318h-123v1536h107l993 -1318v1318z" />
    <glyph glyph-name="O" unicode="O" horiz-adv-x="1858" 
d="M929 -20q-160 0 -306 62.5t-251.5 168t-168 251.5t-62.5 306t62.5 306t168 251.5t251.5 168t306 62.5t306 -62.5t252 -168t168.5 -251.5t62.5 -306t-62.5 -306t-168.5 -251.5t-252 -168t-306 -62.5zM929 102q182 0 335 89t242 242t89 335t-89 335t-242 242t-335 89
q-136 0 -259 -52.5t-212 -141.5t-141.5 -212.5t-52.5 -259.5t52.5 -259.5t141.5 -212.5t212 -141.5t259 -52.5z" />
    <glyph glyph-name="P" unicode="P" horiz-adv-x="1200" 
d="M724 1536q175 0 297.5 -122.5t122.5 -297.5q0 -174 -122.5 -295.5t-297.5 -121.5h-401v-699h-123v1536h524zM714 817q132 0 219.5 82.5t87.5 216.5q0 129 -88.5 214.5t-218.5 85.5h-391v-599h391z" />
    <glyph glyph-name="Q" unicode="Q" horiz-adv-x="1866" 
d="M1748 115v-115h-640q-86 -20 -179 -20q-160 0 -306 62.5t-251.5 168t-168 251.5t-62.5 306t62.5 306t168 251.5t251.5 168t306 62.5t306 -62.5t252 -168t168.5 -251.5t62.5 -306q0 -226 -118.5 -415t-314.5 -289l187 51h276zM264 768q0 -136 52.5 -259.5t141.5 -212.5
t212 -141.5t259 -52.5q182 0 335 89t242 242t89 335t-89 335t-242 242t-335 89q-136 0 -259 -52.5t-212 -141.5t-141.5 -212.5t-52.5 -259.5z" />
    <glyph glyph-name="R" unicode="R" horiz-adv-x="1274" 
d="M781 709l458 -709h-141l-443 704h-332v-704h-123v1536h524q175 0 297.5 -122.5t122.5 -297.5q0 -158 -104 -274t-259 -133zM323 822h394q129 0 216.5 84t87.5 210q0 128 -87 212.5t-217 84.5h-394v-591z" />
    <glyph glyph-name="S" unicode="S" horiz-adv-x="1136" 
d="M579 -20q-169 0 -301 84t-188 220l112 64q42 -111 142 -178.5t237 -67.5q146 0 244.5 76.5t98.5 208.5q0 65 -26 117.5t-70.5 88.5t-102 67t-121 57.5t-126.5 54.5t-120.5 64t-102 80t-70.5 108t-26 143q0 120 59 210t152.5 134.5t205.5 44.5q124 0 228 -51.5t166 -134.5
l-97 -80q-46 65 -123.5 104.5t-170.5 39.5q-124 0 -210.5 -67.5t-86.5 -191.5q0 -63 26 -114t70.5 -86.5t102 -65.5t121 -56.5t126.5 -54.5t120.5 -65t102 -82t70.5 -111.5t26 -147.5q0 -98 -38 -177.5t-103 -130t-149 -77.5t-178 -27z" />
    <glyph glyph-name="T" unicode="T" horiz-adv-x="1062" 
d="M1024 1536v-123h-433v-1413h-123v1413h-432v123h988z" />
    <glyph glyph-name="U" unicode="U" horiz-adv-x="1507" 
d="M753 -20q-158 0 -286.5 68.5t-201.5 189.5t-73 269v1029h123v-1011q0 -180 126 -301.5t312 -121.5q188 0 314 121t126 302v1011h123v-1029q0 -225 -160.5 -376t-402.5 -151z" />
    <glyph glyph-name="V" unicode="V" horiz-adv-x="1272" 
d="M1124 1536h136l-556 -1536h-136l-555 1536h138l486 -1380z" />
    <glyph glyph-name="W" unicode="W" horiz-adv-x="2106" 
d="M1974 1536h128l-489 -1536h-131l-430 1398l-427 -1398h-131l-491 1536h133l425 -1334l407 1334h125h44l409 -1334z" />
    <glyph glyph-name="X" unicode="X" horiz-adv-x="1208" 
d="M1193 0h-149l-440 673l-438 -673h-151l523 776l-512 760h146l432 -658l433 658h148l-512 -760z" />
    <glyph glyph-name="Y" unicode="Y" horiz-adv-x="1223" 
d="M1208 1536l-535 -809v-727h-123v727l-535 809h154l445 -681l446 681h148z" />
    <glyph glyph-name="Z" unicode="Z" horiz-adv-x="1372" 
d="M330 123h937v-123h-1159l898 1413h-850v123h1073z" />
    <glyph glyph-name="bracketleft" unicode="[" horiz-adv-x="693" 
d="M200 -512v2396h371v-95h-266v-2206h266v-95h-371z" />
    <glyph glyph-name="backslash" unicode="\" horiz-adv-x="1364" 
d="M1280 -609l-1313 2493h120l1308 -2493h-115z" />
    <glyph glyph-name="bracketright" unicode="]" horiz-adv-x="693" 
d="M125 -512v95h264v2206h-264v95h369v-2396h-369z" />
    <glyph glyph-name="asciicircum" unicode="^" horiz-adv-x="1436" 
d="M1341 404h-105l-519 1030l-520 -1030h-105l568 1132h113z" />
    <glyph glyph-name="underscore" unicode="_" horiz-adv-x="1454" 
d="M113 -118v118h1228v-118h-1228z" />
    <glyph glyph-name="grave" unicode="`" horiz-adv-x="115" 
d="M443 1160h-90l-276 376h148z" />
    <glyph glyph-name="a" unicode="a" horiz-adv-x="1397" 
d="M1300 97h70v-97q-31 -20 -77 -20q-91 0 -148.5 55t-71.5 149q-72 -95 -181 -149.5t-234 -54.5q-145 0 -267.5 71t-194 193.5t-71.5 267.5t71.5 267.5t194 193.5t267.5 71q122 0 230 -52.5t182 -144.5v177h120v-786q0 -70 30 -105.5t80 -35.5zM658 100q171 0 291.5 120
t120.5 292t-120.5 292t-291.5 120q-173 0 -294 -120t-121 -292t121 -292t294 -120z" />
    <glyph glyph-name="b" unicode="b" horiz-adv-x="1390" 
d="M732 1044q145 0 267.5 -71t194 -193.5t71.5 -267.5t-71.5 -267.5t-194 -193.5t-267.5 -71q-122 0 -230 52t-182 142v-174h-120v1884h120v-1034q74 90 182 142t230 52zM732 100q172 0 293.5 120t121.5 292t-121.5 292t-293.5 120t-292 -120t-120 -292t120 -292t292 -120z
" />
    <glyph glyph-name="c" unicode="c" horiz-adv-x="1244" 
d="M658 -20q-145 0 -267.5 71t-194 193.5t-71.5 267.5t71.5 267.5t194 193.5t267.5 71q172 0 309.5 -100t192.5 -258h-126q-51 108 -152.5 173t-223.5 65q-172 0 -293.5 -119t-121.5 -293t121.5 -293t293.5 -119q122 0 223.5 65t152.5 173h126q-55 -158 -192.5 -258
t-309.5 -100z" />
    <glyph glyph-name="d" unicode="d" horiz-adv-x="1390" 
d="M1070 1884h120v-1884h-120v174q-74 -90 -182 -142t-230 -52q-145 0 -267.5 71t-194 193.5t-71.5 267.5t71.5 267.5t194 193.5t267.5 71q122 0 230 -52t182 -142v1034zM658 100q171 0 291.5 120t120.5 292t-120.5 292t-291.5 120q-173 0 -294 -120t-121 -292t121 -292
t294 -120z" />
    <glyph glyph-name="e" unicode="e" horiz-adv-x="1303" 
d="M1188 527v-28h-945q4 -167 125 -283t290 -116q129 0 233.5 71t150.5 187h125q-51 -167 -190.5 -272.5t-318.5 -105.5q-145 0 -267.5 71t-194 193.5t-71.5 267.5t71.5 267.5t194 193.5t267.5 71q142 0 262 -68t191.5 -186.5t76.5 -262.5zM658 924q-147 0 -258 -88
t-144 -227h801q-33 137 -144.5 226t-254.5 89z" />
    <glyph glyph-name="f" unicode="f" horiz-adv-x="709" 
d="M660 1024v-118h-281v-906h-120v906h-172v118h172v594q0 109 80 187.5t191 78.5q77 0 128 -33v-90l-115 5q-69 0 -116.5 -46t-47.5 -117v-579h281z" />
    <glyph glyph-name="g" unicode="g" horiz-adv-x="1390" 
d="M1070 1024h120v-1111q0 -145 -71 -267.5t-193.5 -194t-267.5 -71.5q-163 0 -296.5 90t-195.5 238l110 51q46 -116 150 -187t232 -71q171 0 291.5 120.5t120.5 291.5v261q-74 -90 -182 -142t-230 -52q-145 0 -267.5 71t-194 193.5t-71.5 267.5q0 146 71.5 268.5t194 193
t267.5 70.5q123 0 230.5 -51.5t181.5 -142.5v174zM658 100q171 0 291.5 120.5t120.5 291.5q0 172 -120.5 292t-291.5 120q-173 0 -294 -120t-121 -292q0 -171 121.5 -291.5t293.5 -120.5z" />
    <glyph glyph-name="h" unicode="h" horiz-adv-x="1139" 
d="M579 1044q156 0 266 -112.5t110 -273.5v-658h-118v658q0 113 -76.5 191t-184.5 78q-106 0 -181 -78t-75 -191v-658h-120v1884h120v-942q107 102 259 102z" />
    <glyph glyph-name="i" unicode="i" horiz-adv-x="563" 
d="M282 1221q-39 0 -67 27t-28 65q0 40 28 67.5t67 27.5t66.5 -27.5t27.5 -67.5q0 -38 -28 -65t-66 -27zM223 0v1024h117v-1024h-117z" />
    <glyph glyph-name="j" unicode="j" horiz-adv-x="570" 
d="M289 1221q-37 0 -65.5 27t-28.5 65q0 40 28 67.5t66 27.5q39 0 67 -27.5t28 -67.5q0 -38 -28 -65t-67 -27zM79 -614q-77 0 -128 33v89l116 -5q69 0 116 46t47 118v1357h118v-1372q0 -109 -79.5 -187.5t-189.5 -78.5z" />
    <glyph glyph-name="k" unicode="k" horiz-adv-x="1031" 
d="M215 0v1884h118v-1884h-118zM870 0l-527 573l486 451h164l-491 -453l535 -571h-167z" />
    <glyph glyph-name="l" unicode="l" horiz-adv-x="519" 
d="M200 0v1884h120v-1884h-120z" />
    <glyph glyph-name="m" unicode="m" horiz-adv-x="1730" 
d="M1183 1044q152 0 257.5 -109.5t105.5 -268.5v-666h-118v666q0 110 -72 184t-176 74q-103 0 -174.5 -74t-71.5 -184v-666h-120v666q0 110 -72 184t-176 74t-175 -74t-71 -184v-666h-120v1024h120v-113q46 62 114.5 97.5t144.5 35.5q88 0 167 -46t130 -125q49 78 131 124.5
t176 46.5z" />
    <glyph glyph-name="n" unicode="n" horiz-adv-x="1159" 
d="M599 1044q99 0 185.5 -51t138.5 -140.5t52 -194.5v-658h-117v658q0 111 -79 190t-190 79t-190 -79t-79 -190v-658h-120v1024h120v-110q52 62 124.5 96t154.5 34z" />
    <glyph glyph-name="o" unicode="o" horiz-adv-x="1313" 
d="M658 -20q-145 0 -267.5 71t-194 193.5t-71.5 267.5t71.5 267.5t194 193.5t267.5 71q220 0 376 -156t156 -376t-156 -376t-376 -156zM658 100q171 0 291.5 120t120.5 292t-120.5 292t-291.5 120q-173 0 -294 -120t-121 -292t121 -292t294 -120z" />
    <glyph glyph-name="p" unicode="p" horiz-adv-x="1390" 
d="M732 1044q145 0 267.5 -71t194 -193.5t71.5 -267.5t-71.5 -267.5t-194 -193.5t-267.5 -71q-122 0 -230 52t-182 142v-788h-120v1638h120v-174q74 90 182 142t230 52zM732 100q172 0 293.5 120t121.5 292t-121.5 292t-293.5 120t-292 -120t-120 -292t120 -292t292 -120z
" />
    <glyph glyph-name="q" unicode="q" horiz-adv-x="1390" 
d="M1354 -497h92v-97q-48 -20 -105 -20q-111 0 -191 78.5t-80 187.5v522q-74 -90 -182 -142t-230 -52q-145 0 -267.5 71t-194 193.5t-71.5 267.5t71.5 267.5t194 193.5t267.5 71q122 0 230 -52t182 -142v174h120v-1357q0 -72 47.5 -118t116.5 -46zM658 100q171 0 291.5 120
t120.5 292t-120.5 292t-291.5 120q-173 0 -294 -120t-121 -292t121 -292t294 -120z" />
    <glyph glyph-name="r" unicode="r" horiz-adv-x="768" 
d="M666 1044q48 0 84 -7v-123q-29 10 -84 10q-145 0 -245.5 -97.5t-100.5 -240.5v-586h-120v1024h120v-159q57 83 147 131t199 48z" />
    <glyph glyph-name="s" unicode="s" horiz-adv-x="855" 
d="M445 -20q-118 0 -217.5 62t-130.5 153l115 46q15 -61 83 -102.5t150 -41.5q83 0 140.5 45.5t57.5 123.5q0 30 -11 55t-27 42.5t-46 35.5t-56.5 30t-69.5 29q-69 26 -117 52t-89 61.5t-61 83.5t-20 108q0 132 87 206.5t202 74.5q90 0 170 -45t112 -108l-103 -56
q-53 89 -174 89q-75 0 -124.5 -39t-49.5 -117q0 -32 11 -58t25.5 -43.5t46.5 -36t56 -29.5t71 -30q52 -21 83.5 -36t75 -43t68 -57t42.5 -73.5t18 -97.5q0 -123 -92.5 -203.5t-225.5 -80.5z" />
    <glyph glyph-name="t" unicode="t" horiz-adv-x="734" 
d="M640 906h-282v-645q0 -72 47.5 -118t116.5 -46h115v-84q-51 -33 -128 -33q-111 0 -191 78.5t-80 187.5v660h-171v118h171v445h120v-445h282v-118z" />
    <glyph glyph-name="u" unicode="u" horiz-adv-x="1082" 
d="M540 -20q-165 0 -269.5 109t-104.5 282v653h118v-640q0 -125 73.5 -204.5t182.5 -79.5q112 0 185.5 79t73.5 205v640h117v-653q0 -172 -105.5 -281.5t-270.5 -109.5z" />
    <glyph glyph-name="v" unicode="v" horiz-adv-x="1008" 
d="M847 1024h126l-410 -1024h-118l-409 1024h128l340 -881z" />
    <glyph glyph-name="w" unicode="w" horiz-adv-x="1628" 
d="M1464 1024h128l-350 -1024h-134l-291 860l-295 -860h-133l-353 1024h133l292 -883l297 883h115l297 -883z" />
    <glyph glyph-name="x" unicode="x" horiz-adv-x="1067" 
d="M1032 1024l-425 -512l425 -512h-146l-351 425l-353 -425h-146l425 512l-425 512h146l353 -425l351 425h146z" />
    <glyph glyph-name="y" unicode="y" horiz-adv-x="1029" 
d="M858 1024h135l-658 -1638h-128l246 606l-417 1032h133l348 -883z" />
    <glyph glyph-name="z" unicode="z" horiz-adv-x="1075" 
d="M323 120h655v-120h-881l645 904h-609v120h837z" />
    <glyph glyph-name="braceleft" unicode="{" horiz-adv-x="652" 
d="M476 -538q-82 0 -135.5 74t-53.5 182v558q0 152 -28.5 227.5t-125.5 123.5v95q42 21 70.5 48t45 55.5t25 70.5t11 80t2.5 97v555q0 110 53.5 183t135.5 73h77v-95q-94 0 -131.5 -40.5t-37.5 -140.5v-566q0 -63 -5 -107.5t-19.5 -94.5t-46 -91t-80.5 -73
q49 -33 80.5 -74.5t46 -91.5t19.5 -95t5 -108v-573q0 -91 39 -134t130 -43v-95h-77z" />
    <glyph glyph-name="bar" unicode="|" horiz-adv-x="614" 
d="M264 -307v1843h84v-1843h-84z" />
    <glyph glyph-name="braceright" unicode="}" horiz-adv-x="652" 
d="M97 -538v95q91 0 130 43t39 134v573q0 63 5 108t19.5 95t46 91.5t80.5 74.5q-49 32 -80.5 73t-46 91t-19.5 94.5t-5 107.5v566q0 100 -37.5 140.5t-131.5 40.5v95h77q82 0 137 -73t55 -183v-555q0 -75 4 -120t19 -92t47 -80t84 -59v-95q-42 -20 -70 -46t-45 -53.5
t-25.5 -69t-11 -81t-2.5 -101.5v-558q0 -108 -55 -182t-137 -74h-77z" />
    <glyph glyph-name="asciitilde" unicode="~" horiz-adv-x="1223" 
d="M832 371q-45 0 -85 13t-73 38.5t-53.5 46.5t-47.5 53q-50 57 -87.5 83.5t-88.5 26.5q-84 0 -137 -67t-53 -168h-89q-4 143 75.5 234t203.5 91q76 0 134 -38.5t117 -112.5q47 -56 84.5 -83t91.5 -27q83 0 137.5 65.5t52.5 167.5h89q6 -138 -72 -230.5t-199 -92.5z" />
    <glyph glyph-name="exclamdown" unicode="&#xa1;" horiz-adv-x="616" 
d="M310 835q-38 0 -66.5 28t-28.5 66t28.5 66.5t66.5 28.5q37 0 64.5 -28.5t27.5 -66.5t-27.5 -66t-64.5 -28zM248 -614l11 1223h97l13 -1223h-121z" />
    <glyph glyph-name="cent" unicode="&#xa2;" horiz-adv-x="1157" 
d="M686 1142q-178 0 -301.5 -124t-123.5 -301t123.5 -301t301.5 -124q174 0 297 110v-123q-114 -87 -276 -95v-184h-82v187q-206 23 -345 174t-139 356t139 356t345 174v189h82v-187q161 -8 276 -94v-126q-124 113 -297 113z" />
    <glyph glyph-name="sterling" unicode="&#xa3;" horiz-adv-x="1262" 
d="M364 92h778v-92h-873v712h-164v87h164v307q0 199 120.5 324.5t314.5 125.5q133 0 247.5 -81.5t156.5 -207.5l-92 -38q-28 99 -118 164.5t-194 65.5q-153 0 -246.5 -97.5t-93.5 -255.5v-307h381v-87h-381v-620z" />
    <glyph glyph-name="currency" unicode="&#xa4;" horiz-adv-x="1239" 
d="M248 305l-66 71l102 100q-96 116 -96 268t96 265l-100 99l67 72l102 -102q115 96 266.5 96t268.5 -96l100 102l69 -69l-100 -100q94 -116 94 -267.5t-94 -267.5l100 -100l-66 -71l-103 102q-117 -96 -268.5 -96t-268.5 96zM381 507q100 -99 238.5 -99t238.5 99
q96 98 95.5 236.5t-98.5 236.5q-98 96 -236.5 96t-237.5 -98q-96 -98 -96 -236.5t96 -234.5z" />
    <glyph glyph-name="yen" unicode="&#xa5;" horiz-adv-x="1395" 
d="M750 737v-38h440v-79h-440v-226h440v-79h-440v-315h-107v315h-436v79h436v226h-436v79h436v38l-530 799h117l466 -709l466 709h118z" />
    <glyph glyph-name="brokenbar" unicode="&#xa6;" horiz-adv-x="614" 
d="M264 799v737h84v-737h-84zM264 -307v737h84v-737h-84z" />
    <glyph glyph-name="section" unicode="&#xa7;" horiz-adv-x="1292" 
d="M1052 492q85 -73 85 -180q0 -94 -68.5 -166t-176.5 -107.5t-234 -35.5q-173 0 -306.5 65t-185.5 165l82 43q40 -80 150.5 -133t261.5 -53q157 0 268 59t111 163q0 49 -27.5 87.5t-74 65t-106.5 49t-126.5 42t-132.5 40.5t-126 48.5t-106.5 61.5t-74 84.5t-27.5 113.5
q0 109 85 179q-85 77 -85 179q0 93 62 161.5t155.5 100.5t202.5 32q120 0 224.5 -38.5t167.5 -101.5l-67 -54q-51 51 -135 80.5t-185 29.5q-85 0 -158 -22t-121.5 -70.5t-48.5 -114.5q0 -49 27.5 -87.5t74 -65t106.5 -49t126.5 -42t133 -40.5t126.5 -48.5t106.5 -61.5
t74 -84.5t27.5 -113.5q0 -101 -85 -181zM335 906q0 -62 42.5 -108.5t117 -77.5t153 -55t173 -55.5t154.5 -64.5q64 48 64 131q0 61 -43 106.5t-117.5 76t-153.5 54t-173.5 55t-154.5 64.5q-62 -50 -62 -126z" />
    <glyph glyph-name="dieresis" unicode="&#xa8;" horiz-adv-x="115" 
d="M251 1221q-39 0 -67 27t-28 65q0 40 28 67.5t67 27.5t67 -27.5t28 -67.5q0 -38 -28 -65t-67 -27zM602 1221q-39 0 -67 27t-28 65q0 40 28 67.5t67 27.5t66.5 -27.5t27.5 -67.5q0 -38 -28 -65t-66 -27z" />
    <glyph glyph-name="copyright" unicode="&#xa9;" horiz-adv-x="1858" 
d="M929 -20q-160 0 -306 62.5t-251.5 168t-168 251.5t-62.5 306t62.5 306t168 251.5t251.5 168t306 62.5t306 -62.5t252 -168t168.5 -251.5t62.5 -306t-62.5 -306t-168.5 -251.5t-252 -168t-306 -62.5zM929 56q146 0 278 56.5t227 151.5t151 227t56 277t-56 277t-151 227
t-227 151.5t-278 56.5q-145 0 -277 -56.5t-227 -151.5t-151 -227t-56 -277t56 -277t151 -227t227 -151.5t277 -56.5zM947 300q-192 0 -327.5 135.5t-135.5 329.5q0 192 135.5 328t327.5 136q152 0 272 -87.5t166 -225.5h-108q-45 94 -134 151t-196 57q-149 0 -255 -104.5
t-106 -254.5q0 -152 106 -256.5t255 -104.5q107 0 196 57t134 151h108q-47 -137 -167 -224.5t-271 -87.5z" />
    <glyph glyph-name="ordfeminine" unicode="&#xaa;" horiz-adv-x="903" 
d="M684 1536h71v-614h-71v148q-39 -74 -110 -117.5t-159 -43.5q-130 0 -221.5 93t-91.5 227q0 131 92 224t221 93q88 0 159 -44t110 -117v151zM428 973q106 0 181 74.5t75 181.5q0 104 -75 177.5t-181 73.5t-180 -73.5t-74 -177.5q0 -107 74 -181.5t180 -74.5z" />
    <glyph glyph-name="guillemotleft" unicode="&#xab;" horiz-adv-x="1277" 
d="M568 195l-309 376l309 376h110l-312 -376l312 -376h-110zM911 195l-312 376l312 376h110l-309 -376l309 -376h-110z" />
    <glyph glyph-name="logicalnot" unicode="&#xac;" horiz-adv-x="1633" 
d="M1326 251v525h-1111v94h1203v-619h-92z" />
    <glyph glyph-name="uni00AD" unicode="&#xad;" horiz-adv-x="1075" 
d="M148 474v117h717v-117h-717z" />
    <glyph glyph-name="registered" unicode="&#xae;" horiz-adv-x="1858" 
d="M929 1556q160 0 306 -62.5t252 -168t168.5 -251.5t62.5 -306t-62.5 -306t-168.5 -251.5t-252 -168t-306 -62.5t-306 62.5t-251.5 168t-168 251.5t-62.5 306t62.5 306t168 251.5t251.5 168t306 62.5zM929 56q146 0 278 56.5t227 151.5t151 227t56 277t-56 277t-151 227
t-227 151.5t-278 56.5q-145 0 -277 -56.5t-227 -151.5t-151 -227t-56 -277t56 -277t151 -227t227 -151.5t277 -56.5zM1208 945q0 -78 -48 -138t-123 -77l197 -364h-82l-195 356h-161v-356h-72v804h256q96 0 162 -65.5t66 -159.5zM796 1096v-302h184q63 0 108.5 44.5
t45.5 106.5q0 63 -45.5 107t-108.5 44h-184z" />
    <glyph glyph-name="macron" unicode="&#xaf;" horiz-adv-x="184" 
d="M141 1247v87h537v-87h-537z" />
    <glyph glyph-name="degree" unicode="&#xb0;" horiz-adv-x="1059" 
d="M530 1009q-113 0 -193.5 80.5t-80.5 193.5t80.5 193t193.5 80t193.5 -80t80.5 -193t-80.5 -193.5t-193.5 -80.5zM530 1080q85 0 143.5 59t58.5 144t-58.5 143.5t-143.5 58.5t-143.5 -58.5t-58.5 -143.5t58.5 -144t143.5 -59z" />
    <glyph glyph-name="plusminus" unicode="&#xb1;" horiz-adv-x="1674" 
d="M891 868h650v-105h-650v-369h-108v369h-650v105h650v368h108v-368zM133 0v97h1408v-97h-1408z" />
    <glyph glyph-name="uni00B2" unicode="&#xb2;" horiz-adv-x="788" 
d="M248 865h389v-59h-527l315 333q75 81 99 121t24 84q0 70 -43 111t-111 43t-113.5 -40.5t-47.5 -113.5h-64q2 95 66.5 154.5t161.5 57.5q89 0 150 -54.5t65 -147.5q2 -61 -26.5 -111.5t-114.5 -141.5z" />
    <glyph glyph-name="uni00B3" unicode="&#xb3;" horiz-adv-x="752" 
d="M374 1226q94 0 159.5 -63.5t65.5 -156.5q0 -92 -65.5 -157.5t-157.5 -65.5q-93 0 -159 63t-66 152h61q0 -65 48 -110.5t116 -45.5t116 49t48 118q0 68 -48 113t-116 45h-161l243 308h-307v58h428l-249 -307h44z" />
    <glyph glyph-name="acute" unicode="&#xb4;" horiz-adv-x="115" 
d="M13 1160l217 376h149l-277 -376h-89z" />
    <glyph glyph-name="uni00B5" unicode="&#xb5;" horiz-adv-x="1216" 
d="M932 1024h118v-1024h-118v169q-55 -87 -145 -138t-196 -51q-89 0 -168.5 37t-133.5 103v-632h-94v1536h117v-630q0 -127 90.5 -217t217.5 -90q129 0 220.5 90t91.5 217v630z" />
    <glyph glyph-name="paragraph" unicode="&#xb6;" horiz-adv-x="1290" 
d="M676 -307v1157h-77q-171 0 -267 89t-96 254q0 167 96 255t267 88h151v-1843h-74zM940 -307v1843h74v-1843h-74z" />
    <glyph glyph-name="periodcentered" unicode="&#xb7;" horiz-adv-x="591" 
d="M294 658q-33 0 -56 22.5t-23 56.5q0 33 23 56.5t56 23.5t57.5 -23.5t24.5 -56.5q0 -34 -24 -56.5t-58 -22.5z" />
    <glyph glyph-name="cedilla" unicode="&#xb8;" horiz-adv-x="156" 
d="M328 -532q-68 0 -136.5 35.5t-99.5 86.5l69 34q25 -33 74 -56.5t93 -23.5q52 0 88.5 37t36.5 91q0 77 -62.5 108t-154.5 0l-64 43l87 177h76l-66 -143q109 23 185 -31t76 -154q0 -85 -58.5 -144.5t-143.5 -59.5z" />
    <glyph glyph-name="uni00B9" unicode="&#xb9;" horiz-adv-x="588" 
d="M241 768v704h-121v64h190v-768h-69z" />
    <glyph glyph-name="ordmasculine" unicode="&#xba;" horiz-adv-x="857" 
d="M428 909q-135 0 -230.5 93t-95.5 227q0 131 96 224t230 93q136 0 231.5 -93t95.5 -224q0 -134 -95 -227t-232 -93zM428 973q106 0 181 74.5t75 181.5q0 104 -75 177.5t-181 73.5t-180 -73.5t-74 -177.5q0 -107 74 -181.5t180 -74.5z" />
    <glyph glyph-name="guillemotright" unicode="&#xbb;" horiz-adv-x="1277" 
d="M256 195l310 376l-310 376h108l312 -376l-312 -376h-108zM596 195l313 376l-313 376h113l310 -376l-310 -376h-113z" />
    <glyph glyph-name="onequarter" unicode="&#xbc;" horiz-adv-x="2152" 
d="M118 1454v82h253v-1024h-82v942h-171zM1469 1531h98l-1073 -1536h-95zM2002 297v-82h-113v-215h-82v215h-499l479 809h102v-727h113zM1436 297h371v635z" />
    <glyph glyph-name="onehalf" unicode="&#xbd;" horiz-adv-x="2214" 
d="M371 512h-82v942h-171v82h253v-1024zM1441 1536h98l-1073 -1536h-95zM1544 82h540v-82h-727l435 461q103 110 136 165.5t33 115.5q0 100 -60.5 156.5t-154.5 58.5t-157 -57.5t-63 -157.5h-90q2 133 91.5 216t223.5 81q123 -2 207 -77t90 -202q4 -84 -35.5 -152.5
t-159.5 -200.5z" />
    <glyph glyph-name="threequarters" unicode="&#xbe;" horiz-adv-x="2196" 
d="M776 812q0 -127 -91.5 -217.5t-221.5 -90.5q-129 0 -219 87t-90 210h84q0 -90 66 -152.5t159 -62.5q95 0 161.5 67t66.5 161q0 93 -66 155.5t-162 62.5h-220l336 427h-425v82h591l-341 -427h57q131 0 223 -87t92 -215zM1580 1531h97l-1073 -1536h-95zM2043 297v-82h-113
v-215h-82v215h-499l479 809h102v-727h113zM1477 297h371v635z" />
    <glyph glyph-name="questiondown" unicode="&#xbf;" horiz-adv-x="1231" 
d="M568 863q-39 0 -66.5 27t-27.5 67q0 38 28 65.5t66 27.5t66.5 -27.5t28.5 -65.5q0 -40 -28 -67t-67 -27zM576 -614q-185 0 -303.5 114.5t-118.5 292.5q0 78 20 138t52.5 96.5t71.5 65t78 52t71.5 49.5t52.5 64.5t20 89.5v261h110v-243q0 -74 -20.5 -128.5t-53 -86.5
t-71.5 -57t-78.5 -49t-72 -53.5t-53 -79.5t-20.5 -119q0 -134 88.5 -218t226.5 -84q126 0 213.5 79t98.5 202h110q-10 -169 -128 -277.5t-294 -108.5z" />
    <glyph glyph-name="Agrave" unicode="&#xc0;" horiz-adv-x="1272" 
d="M691 1672h-89l-277 376h149zM1126 0l-130 371h-717l-131 -371h-135l555 1536h136l556 -1536h-134zM320 489h635l-318 901z" />
    <glyph glyph-name="Aacute" unicode="&#xc1;" horiz-adv-x="1272" 
d="M950 2048l-277 -376h-89l217 376h149zM1126 0l-130 371h-717l-131 -371h-135l555 1536h136l556 -1536h-134zM320 489h635l-318 901z" />
    <glyph glyph-name="Acircumflex" unicode="&#xc2;" horiz-adv-x="1272" 
d="M637 1961l-161 -289h-102l199 376h126l200 -376h-103zM1126 0l-130 371h-717l-131 -371h-135l555 1536h136l556 -1536h-134zM320 489h635l-318 901z" />
    <glyph glyph-name="Atilde" unicode="&#xc3;" horiz-adv-x="1272" 
d="M494 1900q-53 0 -83 -45.5t-30 -116.5h-92q0 111 55.5 182.5t147.5 71.5q103 0 181 -108q21 -33 45 -49.5t60 -16.5q52 0 82.5 42.5t30.5 118.5h92q0 -110 -55.5 -182t-149.5 -72q-112 0 -182 108q-42 67 -102 67zM1126 0l-130 371h-717l-131 -371h-135l555 1536h136
l556 -1536h-134zM320 489h635l-318 901z" />
    <glyph glyph-name="Adieresis" unicode="&#xc4;" horiz-adv-x="1272" 
d="M461 1733q-39 0 -67 27t-28 65q0 40 28 67.5t67 27.5t67 -27.5t28 -67.5q0 -38 -28 -65t-67 -27zM812 1733q-39 0 -67 27t-28 65q0 40 28 67.5t67 27.5t66.5 -27.5t27.5 -67.5q0 -38 -28 -65t-66 -27zM1126 0l-130 371h-717l-131 -371h-135l555 1536h136l556 -1536h-134z
M320 489h635l-318 901z" />
    <glyph glyph-name="Aring" unicode="&#xc5;" horiz-adv-x="1272" 
d="M1126 0l-130 371h-717l-131 -371h-135l537 1487q-51 25 -81.5 74t-30.5 106q0 83 58 141t141 58t141.5 -58.5t58.5 -140.5q0 -58 -31.5 -107.5t-83.5 -72.5l538 -1487h-134zM512 1667q0 -54 35.5 -91t89.5 -37t91 37t37 91t-37 92t-91 38t-89.5 -37.5t-35.5 -92.5z
M320 489h635l-318 901z" />
    <glyph glyph-name="AE" unicode="&#xc6;" horiz-adv-x="1784" 
d="M1623 1413h-699v-584h612v-122h-612v-584h699v-123h-819v376h-502l-148 -376h-141l617 1536h993v-123zM348 494h456v934h-85z" />
    <glyph glyph-name="Ccedilla" unicode="&#xc7;" horiz-adv-x="1710" 
d="M929 102q183 0 337 90.5t242 242.5l105 -59q-100 -175 -273 -282t-383 -114l-56 -123q109 23 185 -31t76 -154q0 -85 -58.5 -144.5t-143.5 -59.5q-68 0 -136.5 35.5t-99.5 86.5l70 34q25 -33 73.5 -56.5t92.5 -23.5q52 0 88.5 37t36.5 91q0 77 -62.5 108t-154.5 0l-64 43
l77 159q-203 11 -373 118.5t-268.5 284.5t-98.5 383q0 160 62.5 306t168 251.5t251.5 168t306 62.5q217 0 398.5 -107t285.5 -289l-105 -59q-88 152 -242 242.5t-337 90.5q-136 0 -259 -52.5t-212 -141.5t-141.5 -212.5t-52.5 -259.5t52.5 -259.5t141.5 -212.5t212 -141.5
t259 -52.5z" />
    <glyph glyph-name="Egrave" unicode="&#xc8;" horiz-adv-x="1192" 
d="M676 1672h-90l-276 376h148zM1032 1416h-697v-589h610v-118h-610v-589h697v-120h-820v1536h820v-120z" />
    <glyph glyph-name="Eacute" unicode="&#xc9;" horiz-adv-x="1192" 
d="M934 2048l-276 -376h-90l218 376h148zM1032 1416h-697v-589h610v-118h-610v-589h697v-120h-820v1536h820v-120z" />
    <glyph glyph-name="Ecircumflex" unicode="&#xca;" horiz-adv-x="1192" 
d="M622 1961l-161 -289h-103l200 376h126l199 -376h-102zM1032 1416h-697v-589h610v-118h-610v-589h697v-120h-820v1536h820v-120z" />
    <glyph glyph-name="Edieresis" unicode="&#xcb;" horiz-adv-x="1192" 
d="M445 1733q-38 0 -66 27t-28 65q0 40 27.5 67.5t66.5 27.5t67 -27.5t28 -67.5q0 -38 -28 -65t-67 -27zM796 1733q-39 0 -67 27t-28 65q0 40 28 67.5t67 27.5t67 -27.5t28 -67.5q0 -38 -28 -65t-67 -27zM1032 1416h-697v-589h610v-118h-610v-589h697v-120h-820v1536h820
v-120z" />
    <glyph glyph-name="Igrave" unicode="&#xcc;" horiz-adv-x="545" 
d="M328 1672h-90l-276 376h148zM212 0v1536h123v-1536h-123z" />
    <glyph glyph-name="Iacute" unicode="&#xcd;" horiz-adv-x="545" 
d="M220 1672l218 376h148l-276 -376h-90zM212 0v1536h123v-1536h-123z" />
    <glyph glyph-name="Icircumflex" unicode="&#xce;" horiz-adv-x="545" 
d="M113 1672h-103l200 376h125l200 -376h-102l-159 289zM212 0v1536h123v-1536h-123z" />
    <glyph glyph-name="Idieresis" unicode="&#xcf;" horiz-adv-x="545" 
d="M97 1733q-38 0 -66 27t-28 65q0 40 27.5 67.5t66.5 27.5t67 -27.5t28 -67.5q0 -38 -28 -65t-67 -27zM448 1733q-39 0 -67 27t-28 65q0 40 28 67.5t67 27.5t67 -27.5t28 -67.5q0 -38 -28 -65t-67 -27zM212 0v1536h123v-1536h-123z" />
    <glyph glyph-name="Eth" unicode="&#xd0;" horiz-adv-x="1507" 
d="M599 1536q157 0 299 -60.5t245 -163.5t163.5 -245t60.5 -299t-60.5 -299t-163.5 -245t-245 -163.5t-299 -60.5h-399v709h-159v115h159v712h399zM596 123q133 0 253 49.5t206.5 135t137.5 205.5t51 255t-51 255t-137.5 205.5t-206.5 135t-253 49.5h-273v-589h284v-115
h-284v-586h273z" />
    <glyph glyph-name="Ntilde" unicode="&#xd1;" horiz-adv-x="1623" 
d="M660 1900q-53 0 -82.5 -45.5t-29.5 -116.5h-92q0 112 55 183t147 71q104 0 182 -108q21 -33 45 -49.5t60 -16.5q52 0 82 42.5t30 118.5h92q0 -110 -55 -182t-149 -72q-112 0 -182 108q-42 67 -103 67zM1300 1536h123v-1536h-107l-993 1318v-1318h-123v1536h107l993 -1318
v1318z" />
    <glyph glyph-name="Ograve" unicode="&#xd2;" horiz-adv-x="1858" 
d="M983 1672h-90l-276 376h148zM929 -20q-160 0 -306 62.5t-251.5 168t-168 251.5t-62.5 306t62.5 306t168 251.5t251.5 168t306 62.5t306 -62.5t252 -168t168.5 -251.5t62.5 -306t-62.5 -306t-168.5 -251.5t-252 -168t-306 -62.5zM929 102q182 0 335 89t242 242t89 335
t-89 335t-242 242t-335 89q-136 0 -259 -52.5t-212 -141.5t-141.5 -212.5t-52.5 -259.5t52.5 -259.5t141.5 -212.5t212 -141.5t259 -52.5z" />
    <glyph glyph-name="Oacute" unicode="&#xd3;" horiz-adv-x="1858" 
d="M876 1672l217 376h149l-277 -376h-89zM929 -20q-160 0 -306 62.5t-251.5 168t-168 251.5t-62.5 306t62.5 306t168 251.5t251.5 168t306 62.5t306 -62.5t252 -168t168.5 -251.5t62.5 -306t-62.5 -306t-168.5 -251.5t-252 -168t-306 -62.5zM929 102q182 0 335 89t242 242
t89 335t-89 335t-242 242t-335 89q-136 0 -259 -52.5t-212 -141.5t-141.5 -212.5t-52.5 -259.5t52.5 -259.5t141.5 -212.5t212 -141.5t259 -52.5z" />
    <glyph glyph-name="Ocircumflex" unicode="&#xd4;" horiz-adv-x="1858" 
d="M768 1672h-102l199 376h126l199 -376h-102l-159 289zM929 -20q-160 0 -306 62.5t-251.5 168t-168 251.5t-62.5 306t62.5 306t168 251.5t251.5 168t306 62.5t306 -62.5t252 -168t168.5 -251.5t62.5 -306t-62.5 -306t-168.5 -251.5t-252 -168t-306 -62.5zM929 102
q182 0 335 89t242 242t89 335t-89 335t-242 242t-335 89q-136 0 -259 -52.5t-212 -141.5t-141.5 -212.5t-52.5 -259.5t52.5 -259.5t141.5 -212.5t212 -141.5t259 -52.5z" />
    <glyph glyph-name="Otilde" unicode="&#xd5;" horiz-adv-x="1858" 
d="M1070 1725q-112 0 -182 108q-42 67 -102 67q-53 0 -83 -45.5t-30 -116.5h-92q0 112 55 183t147 71q104 0 182 -108q21 -33 45 -49.5t60 -16.5q52 0 82.5 42.5t30.5 118.5h92q0 -110 -55.5 -182t-149.5 -72zM929 -20q-160 0 -306 62.5t-251.5 168t-168 251.5t-62.5 306
t62.5 306t168 251.5t251.5 168t306 62.5t306 -62.5t252 -168t168.5 -251.5t62.5 -306t-62.5 -306t-168.5 -251.5t-252 -168t-306 -62.5zM929 102q182 0 335 89t242 242t89 335t-89 335t-242 242t-335 89q-136 0 -259 -52.5t-212 -141.5t-141.5 -212.5t-52.5 -259.5
t52.5 -259.5t141.5 -212.5t212 -141.5t259 -52.5z" />
    <glyph glyph-name="Odieresis" unicode="&#xd6;" horiz-adv-x="1858" 
d="M753 1733q-39 0 -67 27t-28 65q0 40 28 67.5t67 27.5t66.5 -27.5t27.5 -67.5q0 -38 -28 -65t-66 -27zM1103 1733q-38 0 -66 27t-28 65q0 40 27.5 67.5t66.5 27.5t67 -27.5t28 -67.5q0 -38 -28 -65t-67 -27zM929 -20q-160 0 -306 62.5t-251.5 168t-168 251.5t-62.5 306
t62.5 306t168 251.5t251.5 168t306 62.5t306 -62.5t252 -168t168.5 -251.5t62.5 -306t-62.5 -306t-168.5 -251.5t-252 -168t-306 -62.5zM929 102q182 0 335 89t242 242t89 335t-89 335t-242 242t-335 89q-136 0 -259 -52.5t-212 -141.5t-141.5 -212.5t-52.5 -259.5
t52.5 -259.5t141.5 -212.5t212 -141.5t259 -52.5z" />
    <glyph glyph-name="multiply" unicode="&#xd7;" horiz-adv-x="1515" 
d="M1257 709l-74 -74l74 -74l-412 -415l-77 77l-77 -77l-409 415l74 74l-74 74l409 415l77 -77l77 77z" />
    <glyph glyph-name="Oslash" unicode="&#xd8;" horiz-adv-x="1858" 
d="M1423 1382q137 -112 216 -272t79 -342q0 -160 -62.5 -306t-168.5 -251.5t-252 -168t-306 -62.5q-220 0 -404 112l-110 -156l-92 56l112 162q-137 109 -215.5 270t-78.5 344q0 160 62.5 306t168 251.5t251.5 168t306 62.5q223 0 407 -112l108 153l89 -58zM264 768
q0 -152 64 -286.5t176 -228.5l763 1091q-161 90 -338 90q-136 0 -259 -52.5t-212 -141.5t-141.5 -212.5t-52.5 -259.5zM929 102q182 0 335 89t242 242t89 335q0 152 -64.5 286.5t-176.5 228.5l-760 -1091q156 -90 335 -90z" />
    <glyph glyph-name="Ugrave" unicode="&#xd9;" horiz-adv-x="1507" 
d="M806 1672h-89l-277 376h149zM753 -20q-158 0 -286.5 68.5t-201.5 189.5t-73 269v1029h123v-1011q0 -180 126 -301.5t312 -121.5q188 0 314 121t126 302v1011h123v-1029q0 -225 -160.5 -376t-402.5 -151z" />
    <glyph glyph-name="Uacute" unicode="&#xda;" horiz-adv-x="1507" 
d="M699 1672l217 376h149l-277 -376h-89zM753 -20q-158 0 -286.5 68.5t-201.5 189.5t-73 269v1029h123v-1011q0 -180 126 -301.5t312 -121.5q188 0 314 121t126 302v1011h123v-1029q0 -225 -160.5 -376t-402.5 -151z" />
    <glyph glyph-name="Ucircumflex" unicode="&#xdb;" horiz-adv-x="1507" 
d="M591 1672h-102l200 376h125l200 -376h-103l-158 289zM753 -20q-158 0 -286.5 68.5t-201.5 189.5t-73 269v1029h123v-1011q0 -180 126 -301.5t312 -121.5q188 0 314 121t126 302v1011h123v-1029q0 -225 -160.5 -376t-402.5 -151z" />
    <glyph glyph-name="Udieresis" unicode="&#xdc;" horiz-adv-x="1507" 
d="M576 1733q-39 0 -67 27t-28 65q0 40 28 67.5t67 27.5t67 -27.5t28 -67.5q0 -38 -28 -65t-67 -27zM927 1733q-39 0 -67 27t-28 65q0 40 28 67.5t67 27.5t66.5 -27.5t27.5 -67.5q0 -38 -28 -65t-66 -27zM753 -20q-158 0 -286.5 68.5t-201.5 189.5t-73 269v1029h123v-1011
q0 -180 126 -301.5t312 -121.5q188 0 314 121t126 302v1011h123v-1029q0 -225 -160.5 -376t-402.5 -151z" />
    <glyph glyph-name="Yacute" unicode="&#xdd;" horiz-adv-x="1223" 
d="M927 2048l-277 -376h-89l217 376h149zM1208 1536l-535 -809v-727h-123v727l-535 809h154l445 -681l446 681h148z" />
    <glyph glyph-name="Thorn" unicode="&#xde;" horiz-adv-x="1251" 
d="M737 1326q173 0 296.5 -123t123.5 -297t-123.5 -295.5t-296.5 -121.5h-404v-489h-118v1326v210h118v-210h404zM730 607q130 0 217 86t87 216q0 129 -87 214t-217 85h-397v-601h397z" />
    <glyph glyph-name="germandbls" unicode="&#xdf;" horiz-adv-x="1384" 
d="M942 776q121 -45 195 -149.5t74 -237.5q0 -169 -115 -279t-279 -110h-305v123h287q122 0 207 74t85 197q0 131 -91 220.5t-224 89.5h-131v102h56q129 0 219.5 91.5t90.5 223.5q0 133 -93.5 220t-239.5 87q-148 0 -246.5 -90t-98.5 -227v-1111h-118v1111
q0 184 131.5 304.5t329.5 120.5q195 0 321.5 -116t126.5 -294q0 -109 -48.5 -200t-133.5 -150z" />
    <glyph glyph-name="agrave" unicode="&#xe0;" horiz-adv-x="1397" 
d="M712 1160h-90l-276 376h148zM1300 97h70v-97q-31 -20 -77 -20q-91 0 -148.5 55t-71.5 149q-72 -95 -181 -149.5t-234 -54.5q-145 0 -267.5 71t-194 193.5t-71.5 267.5t71.5 267.5t194 193.5t267.5 71q122 0 230 -52.5t182 -144.5v177h120v-786q0 -70 30 -105.5t80 -35.5z
M658 100q171 0 291.5 120t120.5 292t-120.5 292t-291.5 120q-173 0 -294 -120t-121 -292t121 -292t294 -120z" />
    <glyph glyph-name="aacute" unicode="&#xe1;" horiz-adv-x="1397" 
d="M970 1536l-276 -376h-90l218 376h148zM1300 97h70v-97q-31 -20 -77 -20q-91 0 -148.5 55t-71.5 149q-72 -95 -181 -149.5t-234 -54.5q-145 0 -267.5 71t-194 193.5t-71.5 267.5t71.5 267.5t194 193.5t267.5 71q122 0 230 -52.5t182 -144.5v177h120v-786q0 -70 30 -105.5
t80 -35.5zM658 100q171 0 291.5 120t120.5 292t-120.5 292t-291.5 120q-173 0 -294 -120t-121 -292t121 -292t294 -120z" />
    <glyph glyph-name="acircumflex" unicode="&#xe2;" horiz-adv-x="1397" 
d="M658 1449l-161 -289h-103l200 376h125l200 -376h-102zM1300 97h70v-97q-31 -20 -77 -20q-91 0 -148.5 55t-71.5 149q-72 -95 -181 -149.5t-234 -54.5q-145 0 -267.5 71t-194 193.5t-71.5 267.5t71.5 267.5t194 193.5t267.5 71q122 0 230 -52.5t182 -144.5v177h120v-786
q0 -70 30 -105.5t80 -35.5zM658 100q171 0 291.5 120t120.5 292t-120.5 292t-291.5 120q-173 0 -294 -120t-121 -292t121 -292t294 -120z" />
    <glyph glyph-name="atilde" unicode="&#xe3;" horiz-adv-x="1397" 
d="M515 1388q-53 0 -83 -45.5t-30 -116.5h-92q0 112 55 183t147 71q104 0 182 -108q21 -33 45 -49.5t60 -16.5q52 0 82 42.5t30 118.5h93q0 -110 -55.5 -182t-149.5 -72q-112 0 -182 108q-42 67 -102 67zM1300 97h70v-97q-31 -20 -77 -20q-91 0 -148.5 55t-71.5 149
q-72 -95 -181 -149.5t-234 -54.5q-145 0 -267.5 71t-194 193.5t-71.5 267.5t71.5 267.5t194 193.5t267.5 71q122 0 230 -52.5t182 -144.5v177h120v-786q0 -70 30 -105.5t80 -35.5zM658 100q171 0 291.5 120t120.5 292t-120.5 292t-291.5 120q-173 0 -294 -120t-121 -292
t121 -292t294 -120z" />
    <glyph glyph-name="adieresis" unicode="&#xe4;" horiz-adv-x="1397" 
d="M481 1221q-38 0 -66 27t-28 65q0 40 27.5 67.5t66.5 27.5t67 -27.5t28 -67.5q0 -38 -28 -65t-67 -27zM832 1221q-39 0 -67 27t-28 65q0 40 28 67.5t67 27.5t67 -27.5t28 -67.5q0 -38 -28 -65t-67 -27zM1300 97h70v-97q-31 -20 -77 -20q-91 0 -148.5 55t-71.5 149
q-72 -95 -181 -149.5t-234 -54.5q-145 0 -267.5 71t-194 193.5t-71.5 267.5t71.5 267.5t194 193.5t267.5 71q122 0 230 -52.5t182 -144.5v177h120v-786q0 -70 30 -105.5t80 -35.5zM658 100q171 0 291.5 120t120.5 292t-120.5 292t-291.5 120q-173 0 -294 -120t-121 -292
t121 -292t294 -120z" />
    <glyph glyph-name="aring" unicode="&#xe5;" horiz-adv-x="1397" 
d="M658 1126q-82 0 -141 59.5t-59 140.5q0 82 59 141t141 59t141 -59t59 -141q0 -81 -59 -140.5t-141 -59.5zM658 1457q-54 0 -90 -38.5t-36 -92.5t36 -91t90 -37t91 37t37 91t-37 92.5t-91 38.5zM1300 97h70v-97q-31 -20 -77 -20q-91 0 -148.5 55t-71.5 149
q-72 -95 -181 -149.5t-234 -54.5q-145 0 -267.5 71t-194 193.5t-71.5 267.5t71.5 267.5t194 193.5t267.5 71q122 0 230 -52.5t182 -144.5v177h120v-786q0 -70 30 -105.5t80 -35.5zM658 100q171 0 291.5 120t120.5 292t-120.5 292t-291.5 120q-173 0 -294 -120t-121 -292
t121 -292t294 -120z" />
    <glyph glyph-name="ae" unicode="&#xe6;" horiz-adv-x="2032" 
d="M1917 527v-28h-944q4 -167 125 -283t290 -116q129 0 233.5 71t150.5 187h125q-51 -167 -190.5 -272.5t-318.5 -105.5q-136 0 -253 63.5t-190 171.5q-103 -108 -223 -171.5t-225 -63.5q-164 0 -268 90t-104 232q0 146 103.5 232t275.5 86h348v51q0 119 -80.5 196.5
t-203.5 77.5q-96 0 -178.5 -50.5t-110.5 -126.5l-118 41q39 103 153 169t257 66q133 0 234 -62.5t142 -167.5q74 106 190.5 168t250.5 62q217 0 369 -149t160 -368zM1388 924q-147 0 -258 -88t-144 -227h801q-33 137 -144.5 226t-254.5 89zM497 90q90 0 198 63.5t196 169.5
q-36 92 -36 186h-351q-120 0 -190.5 -55.5t-70.5 -153.5q0 -94 70.5 -152t183.5 -58z" />
    <glyph glyph-name="ccedilla" unicode="&#xe7;" horiz-adv-x="1244" 
d="M658 100q122 0 223.5 65t152.5 173h126q-52 -150 -179 -248.5t-290 -109.5l-56 -123q109 23 185 -31t76 -154q0 -85 -58.5 -144.5t-143.5 -59.5q-68 0 -136.5 35.5t-99.5 86.5l69 34q25 -33 74 -56.5t93 -23.5q52 0 88.5 37t36.5 91q0 77 -62.5 108t-154.5 0l-64 43
l76 159q-206 15 -347.5 168t-141.5 362q0 145 71.5 267.5t194 193.5t267.5 71q172 0 309.5 -100t192.5 -258h-126q-51 108 -152.5 173t-223.5 65q-172 0 -293.5 -119t-121.5 -293t121.5 -293t293.5 -119z" />
    <glyph glyph-name="egrave" unicode="&#xe8;" horiz-adv-x="1303" 
d="M717 1172h-90l-276 377h148zM1188 527v-28h-945q4 -167 125 -283t290 -116q129 0 233.5 71t150.5 187h125q-51 -167 -190.5 -272.5t-318.5 -105.5q-145 0 -267.5 71t-194 193.5t-71.5 267.5t71.5 267.5t194 193.5t267.5 71q142 0 262 -68t191.5 -186.5t76.5 -262.5z
M658 924q-147 0 -258 -88t-144 -227h801q-33 137 -144.5 226t-254.5 89z" />
    <glyph glyph-name="eacute" unicode="&#xe9;" horiz-adv-x="1303" 
d="M975 1549l-276 -377h-90l218 377h148zM1188 527v-28h-945q4 -167 125 -283t290 -116q129 0 233.5 71t150.5 187h125q-51 -167 -190.5 -272.5t-318.5 -105.5q-145 0 -267.5 71t-194 193.5t-71.5 267.5t71.5 267.5t194 193.5t267.5 71q142 0 262 -68t191.5 -186.5
t76.5 -262.5zM658 924q-147 0 -258 -88t-144 -227h801q-33 137 -144.5 226t-254.5 89z" />
    <glyph glyph-name="ecircumflex" unicode="&#xea;" horiz-adv-x="1303" 
d="M663 1462l-161 -290h-103l200 377h125l200 -377h-102zM1188 527v-28h-945q4 -167 125 -283t290 -116q129 0 233.5 71t150.5 187h125q-51 -167 -190.5 -272.5t-318.5 -105.5q-145 0 -267.5 71t-194 193.5t-71.5 267.5t71.5 267.5t194 193.5t267.5 71q142 0 262 -68
t191.5 -186.5t76.5 -262.5zM658 924q-147 0 -258 -88t-144 -227h801q-33 137 -144.5 226t-254.5 89z" />
    <glyph glyph-name="edieresis" unicode="&#xeb;" horiz-adv-x="1303" 
d="M486 1234q-38 0 -66 27t-28 65q0 40 27.5 67.5t66.5 27.5t67 -27.5t28 -67.5q0 -38 -28 -65t-67 -27zM837 1234q-39 0 -67 27t-28 65q0 40 28 67.5t67 27.5t67 -27.5t28 -67.5q0 -38 -28 -65t-67 -27zM1188 527v-28h-945q4 -167 125 -283t290 -116q129 0 233.5 71
t150.5 187h125q-51 -167 -190.5 -272.5t-318.5 -105.5q-145 0 -267.5 71t-194 193.5t-71.5 267.5t71.5 267.5t194 193.5t267.5 71q142 0 262 -68t191.5 -186.5t76.5 -262.5zM658 924q-147 0 -258 -88t-144 -227h801q-33 137 -144.5 226t-254.5 89z" />
    <glyph glyph-name="igrave" unicode="&#xec;" horiz-adv-x="545" 
d="M328 1160h-90l-276 376h148zM212 0v1024h121v-1024h-121z" />
    <glyph glyph-name="iacute" unicode="&#xed;" horiz-adv-x="545" 
d="M220 1160l218 376h148l-276 -376h-90zM212 0v1024h121v-1024h-121z" />
    <glyph glyph-name="icircumflex" unicode="&#xee;" horiz-adv-x="545" 
d="M113 1160h-103l200 376h125l200 -376h-102l-159 289zM212 0v1024h121v-1024h-121z" />
    <glyph glyph-name="idieresis" unicode="&#xef;" horiz-adv-x="545" 
d="M97 1221q-38 0 -66 27t-28 65q0 40 27.5 67.5t66.5 27.5t67 -27.5t28 -67.5q0 -38 -28 -65t-67 -27zM448 1221q-39 0 -67 27t-28 65q0 40 28 67.5t67 27.5t67 -27.5t28 -67.5q0 -38 -28 -65t-67 -27zM212 0v1024h121v-1024h-121z" />
    <glyph glyph-name="eth" unicode="&#xf0;" horiz-adv-x="1323" 
d="M847 1393q168 -140 266 -372.5t98 -508.5q0 -108 -43 -206.5t-115.5 -170t-173 -113.5t-211.5 -42t-211.5 42t-173 113.5t-115.5 170t-43 206.5t43 206.5t115.5 170t173 113.5t211.5 42q213 0 369 -140q-79 258 -256 407l-115 -149l-64 51l115 146q-156 100 -333 100
l18 103q200 0 381 -121l95 123l64 -48zM668 97q172 0 293.5 121.5t121.5 293.5t-121.5 293.5t-293.5 121.5t-293.5 -121.5t-121.5 -293.5t121.5 -293.5t293.5 -121.5z" />
    <glyph glyph-name="ntilde" unicode="&#xf1;" horiz-adv-x="1159" 
d="M445 1388q-53 0 -82.5 -45.5t-29.5 -116.5h-92q0 112 55 183t147 71q104 0 182 -108q21 -33 45 -49.5t60 -16.5q52 0 82 42.5t30 118.5h92q0 -110 -55 -182t-149 -72q-112 0 -182 108q-42 67 -103 67zM599 1044q99 0 185.5 -51t138.5 -140.5t52 -194.5v-658h-117v658
q0 111 -79 190t-190 79t-190 -79t-79 -190v-658h-120v1024h120v-110q52 62 124.5 96t154.5 34z" />
    <glyph glyph-name="ograve" unicode="&#xf2;" horiz-adv-x="1313" 
d="M712 1160h-90l-276 376h148zM658 -20q-145 0 -267.5 71t-194 193.5t-71.5 267.5t71.5 267.5t194 193.5t267.5 71q220 0 376 -156t156 -376t-156 -376t-376 -156zM658 100q171 0 291.5 120t120.5 292t-120.5 292t-291.5 120q-173 0 -294 -120t-121 -292t121 -292t294 -120
z" />
    <glyph glyph-name="oacute" unicode="&#xf3;" horiz-adv-x="1313" 
d="M604 1160l218 376h148l-276 -376h-90zM658 -20q-145 0 -267.5 71t-194 193.5t-71.5 267.5t71.5 267.5t194 193.5t267.5 71q220 0 376 -156t156 -376t-156 -376t-376 -156zM658 100q171 0 291.5 120t120.5 292t-120.5 292t-291.5 120q-173 0 -294 -120t-121 -292t121 -292
t294 -120z" />
    <glyph glyph-name="ocircumflex" unicode="&#xf4;" horiz-adv-x="1313" 
d="M497 1160h-103l200 376h125l200 -376h-102l-159 289zM658 -20q-145 0 -267.5 71t-194 193.5t-71.5 267.5t71.5 267.5t194 193.5t267.5 71q220 0 376 -156t156 -376t-156 -376t-376 -156zM658 100q171 0 291.5 120t120.5 292t-120.5 292t-291.5 120q-173 0 -294 -120
t-121 -292t121 -292t294 -120z" />
    <glyph glyph-name="otilde" unicode="&#xf5;" horiz-adv-x="1313" 
d="M799 1213q-112 0 -182 108q-42 67 -102 67q-53 0 -83 -45.5t-30 -116.5h-92q0 112 55 183t147 71q104 0 182 -108q21 -33 45 -49.5t60 -16.5q52 0 82 42.5t30 118.5h93q0 -110 -55.5 -182t-149.5 -72zM658 -20q-145 0 -267.5 71t-194 193.5t-71.5 267.5t71.5 267.5
t194 193.5t267.5 71q220 0 376 -156t156 -376t-156 -376t-376 -156zM658 100q171 0 291.5 120t120.5 292t-120.5 292t-291.5 120q-173 0 -294 -120t-121 -292t121 -292t294 -120z" />
    <glyph glyph-name="odieresis" unicode="&#xf6;" horiz-adv-x="1313" 
d="M481 1221q-38 0 -66 27t-28 65q0 40 27.5 67.5t66.5 27.5t67 -27.5t28 -67.5q0 -38 -28 -65t-67 -27zM832 1221q-39 0 -67 27t-28 65q0 40 28 67.5t67 27.5t67 -27.5t28 -67.5q0 -38 -28 -65t-67 -27zM658 -20q-145 0 -267.5 71t-194 193.5t-71.5 267.5t71.5 267.5
t194 193.5t267.5 71q220 0 376 -156t156 -376t-156 -376t-376 -156zM658 100q171 0 291.5 120t120.5 292t-120.5 292t-291.5 120q-173 0 -294 -120t-121 -292t121 -292t294 -120z" />
    <glyph glyph-name="divide" unicode="&#xf7;" horiz-adv-x="1536" 
d="M768 824q-36 0 -63 25t-27 62q0 36 27.5 61.5t62.5 25.5t62.5 -25.5t27.5 -61.5q0 -37 -27 -62t-63 -25zM154 527v72h1228v-72h-1228zM768 128q-36 0 -63 25t-27 62q0 36 27.5 61.5t62.5 25.5t62.5 -25.5t27.5 -61.5q0 -37 -27 -62t-63 -25z" />
    <glyph glyph-name="oslash" unicode="&#xf8;" horiz-adv-x="1313" 
d="M993 924q92 -74 144.5 -182t52.5 -230q0 -220 -156 -376t-376 -156q-152 0 -271 74l-105 -154l-70 44l111 156q-92 74 -145 182t-53 230q0 145 71.5 267.5t194 193.5t267.5 71q142 0 274 -74l105 151l64 -43zM243 512q0 -95 38.5 -177t107.5 -138l474 673
q-100 54 -205 54q-173 0 -294 -120t-121 -292zM658 100q171 0 291.5 120t120.5 292q0 188 -143 315l-471 -676q91 -51 202 -51z" />
    <glyph glyph-name="ugrave" unicode="&#xf9;" horiz-adv-x="1082" 
d="M599 1160h-90l-276 376h148zM540 -20q-165 0 -269.5 109t-104.5 282v653h118v-640q0 -125 73.5 -204.5t182.5 -79.5q112 0 185.5 79t73.5 205v640h117v-653q0 -172 -105.5 -281.5t-270.5 -109.5z" />
    <glyph glyph-name="uacute" unicode="&#xfa;" horiz-adv-x="1082" 
d="M492 1160l217 376h149l-277 -376h-89zM540 -20q-165 0 -269.5 109t-104.5 282v653h118v-640q0 -125 73.5 -204.5t182.5 -79.5q112 0 185.5 79t73.5 205v640h117v-653q0 -172 -105.5 -281.5t-270.5 -109.5z" />
    <glyph glyph-name="ucircumflex" unicode="&#xfb;" horiz-adv-x="1082" 
d="M384 1160h-102l199 376h126l199 -376h-102l-159 289zM540 -20q-165 0 -269.5 109t-104.5 282v653h118v-640q0 -125 73.5 -204.5t182.5 -79.5q112 0 185.5 79t73.5 205v640h117v-653q0 -172 -105.5 -281.5t-270.5 -109.5z" />
    <glyph glyph-name="udieresis" unicode="&#xfc;" horiz-adv-x="1082" 
d="M369 1221q-39 0 -67 27t-28 65q0 40 28 67.5t67 27.5t66.5 -27.5t27.5 -67.5q0 -38 -28 -65t-66 -27zM719 1221q-38 0 -66 27t-28 65q0 40 27.5 67.5t66.5 27.5t67 -27.5t28 -67.5q0 -38 -28 -65t-67 -27zM540 -20q-165 0 -269.5 109t-104.5 282v653h118v-640
q0 -125 73.5 -204.5t182.5 -79.5q112 0 185.5 79t73.5 205v640h117v-653q0 -172 -105.5 -281.5t-270.5 -109.5z" />
    <glyph glyph-name="yacute" unicode="&#xfd;" horiz-adv-x="1029" 
d="M827 1536l-277 -376h-89l217 376h149zM858 1024h135l-658 -1638h-128l246 606l-417 1032h133l348 -883z" />
    <glyph glyph-name="thorn" unicode="&#xfe;" horiz-adv-x="1402" 
d="M748 1044q220 0 376 -156t156 -376t-156 -376t-376 -156q-124 0 -232.5 52.5t-182.5 144.5v-791h-118v2314h118v-853q74 92 182.5 144.5t232.5 52.5zM748 100q171 0 291.5 120t120.5 292t-120.5 292t-291.5 120q-173 0 -294 -120t-121 -292t121 -292t294 -120z" />
    <glyph glyph-name="ydieresis" unicode="&#xff;" horiz-adv-x="1029" 
d="M338 1221q-39 0 -67 27t-28 65q0 40 28 67.5t67 27.5t67 -27.5t28 -67.5q0 -38 -28 -65t-67 -27zM689 1221q-39 0 -67 27t-28 65q0 40 28 67.5t67 27.5t66.5 -27.5t27.5 -67.5q0 -38 -28 -65t-66 -27zM858 1024h135l-658 -1638h-128l246 606l-417 1032h133l348 -883z" />
    <glyph glyph-name="Amacron" unicode="&#x100;" horiz-adv-x="1272" 
d="M906 1846v-87h-537v87h537zM1126 0l-130 371h-717l-131 -371h-135l555 1536h136l556 -1536h-134zM320 489h635l-318 901z" />
    <glyph glyph-name="amacron" unicode="&#x101;" horiz-adv-x="1397" 
d="M927 1334v-87h-538v87h538zM1300 97h70v-97q-31 -20 -77 -20q-91 0 -148.5 55t-71.5 149q-72 -95 -181 -149.5t-234 -54.5q-145 0 -267.5 71t-194 193.5t-71.5 267.5t71.5 267.5t194 193.5t267.5 71q122 0 230 -52.5t182 -144.5v177h120v-786q0 -70 30 -105.5t80 -35.5z
M658 100q171 0 291.5 120t120.5 292t-120.5 292t-291.5 120q-173 0 -294 -120t-121 -292t121 -292t294 -120z" />
    <glyph glyph-name="Abreve" unicode="&#x102;" horiz-adv-x="1272" 
d="M637 1679q-142 0 -234.5 83.5t-92.5 216.5h79q0 -91 71.5 -155.5t176.5 -64.5q106 0 177.5 64.5t71.5 155.5h79q0 -133 -93 -216.5t-235 -83.5zM1126 0l-130 371h-717l-131 -371h-135l555 1536h136l556 -1536h-134zM320 489h635l-318 901z" />
    <glyph glyph-name="abreve" unicode="&#x103;" horiz-adv-x="1397" 
d="M658 1167q-142 0 -235 83.5t-93 216.5h80q0 -91 71.5 -155.5t176.5 -64.5q106 0 177 64.5t71 155.5h80q0 -133 -93 -216.5t-235 -83.5zM1300 97h70v-97q-31 -20 -77 -20q-91 0 -148.5 55t-71.5 149q-72 -95 -181 -149.5t-234 -54.5q-145 0 -267.5 71t-194 193.5
t-71.5 267.5t71.5 267.5t194 193.5t267.5 71q122 0 230 -52.5t182 -144.5v177h120v-786q0 -70 30 -105.5t80 -35.5zM658 100q171 0 291.5 120t120.5 292t-120.5 292t-291.5 120q-173 0 -294 -120t-121 -292t121 -292t294 -120z" />
    <glyph glyph-name="Aogonek" unicode="&#x104;" horiz-adv-x="1272" 
d="M1359 -371l41 -62q-99 -99 -248 -99q-100 4 -157.5 59t-57.5 150t57 169t166 154h-34l-130 371h-717l-131 -371h-135l555 1536h136l556 -1536q-51 -34 -87.5 -63.5t-73.5 -69t-56 -85t-19 -94.5q0 -67 36.5 -106.5t106.5 -39.5q113 0 192 87zM320 489h635l-318 901z" />
    <glyph glyph-name="aogonek" unicode="&#x105;" horiz-adv-x="1397" 
d="M1469 -371l41 -62q-99 -99 -248 -99q-100 4 -157.5 59t-57.5 150q0 89 52 161.5t148 146.5q-72 13 -117.5 65.5t-56.5 133.5q-72 -95 -181 -149.5t-234 -54.5q-145 0 -267.5 71t-194 193.5t-71.5 267.5t71.5 267.5t194 193.5t267.5 71q122 0 230 -52.5t182 -144.5v177
h120v-786q0 -70 30 -105.5t80 -35.5h70v-97q-51 -34 -87.5 -63.5t-73.5 -69t-56 -85t-19 -94.5q0 -67 36.5 -106.5t106.5 -39.5q113 0 192 87zM658 100q171 0 291.5 120t120.5 292t-120.5 292t-291.5 120q-173 0 -294 -120t-121 -292t121 -292t294 -120z" />
    <glyph glyph-name="Cacute" unicode="&#x106;" horiz-adv-x="1710" 
d="M876 1672l217 376h149l-277 -376h-89zM929 -20q-160 0 -306 62.5t-251.5 168t-168 251.5t-62.5 306t62.5 306t168 251.5t251.5 168t306 62.5q217 0 398.5 -107t285.5 -289l-105 -59q-88 152 -242 242.5t-337 90.5q-136 0 -259 -52.5t-212 -141.5t-141.5 -212.5
t-52.5 -259.5t52.5 -259.5t141.5 -212.5t212 -141.5t259 -52.5q183 0 337 90.5t242 242.5l105 -59q-104 -182 -285.5 -289t-398.5 -107z" />
    <glyph glyph-name="cacute" unicode="&#x107;" horiz-adv-x="1244" 
d="M609 1165l218 376h148l-276 -376h-90zM658 -20q-145 0 -267.5 71t-194 193.5t-71.5 267.5t71.5 267.5t194 193.5t267.5 71q172 0 309.5 -100t192.5 -258h-126q-51 108 -152.5 173t-223.5 65q-172 0 -293.5 -119t-121.5 -293t121.5 -293t293.5 -119q122 0 223.5 65
t152.5 173h126q-55 -158 -192.5 -258t-309.5 -100z" />
    <glyph glyph-name="Cdotaccent" unicode="&#x10a;" horiz-adv-x="1710" 
d="M929 1708q-38 0 -66 27t-28 65q0 40 27.5 67t66.5 27q37 0 64.5 -27t27.5 -67q0 -38 -27.5 -65t-64.5 -27zM929 -20q-160 0 -306 62.5t-251.5 168t-168 251.5t-62.5 306t62.5 306t168 251.5t251.5 168t306 62.5q217 0 398.5 -107t285.5 -289l-105 -59q-88 152 -242 242.5
t-337 90.5q-136 0 -259 -52.5t-212 -141.5t-141.5 -212.5t-52.5 -259.5t52.5 -259.5t141.5 -212.5t212 -141.5t259 -52.5q183 0 337 90.5t242 242.5l105 -59q-104 -182 -285.5 -289t-398.5 -107z" />
    <glyph glyph-name="cdotaccent" unicode="&#x10b;" horiz-adv-x="1244" 
d="M663 1201q-39 0 -67 27t-28 65q0 40 28 67.5t67 27.5q37 0 64.5 -27.5t27.5 -67.5q0 -38 -27.5 -65t-64.5 -27zM658 -20q-145 0 -267.5 71t-194 193.5t-71.5 267.5t71.5 267.5t194 193.5t267.5 71q172 0 309.5 -100t192.5 -258h-126q-51 108 -152.5 173t-223.5 65
q-172 0 -293.5 -119t-121.5 -293t121.5 -293t293.5 -119q122 0 223.5 65t152.5 173h126q-55 -158 -192.5 -258t-309.5 -100z" />
    <glyph glyph-name="Ccaron" unicode="&#x10c;" horiz-adv-x="1710" 
d="M868 1672l-200 376h103l161 -289l159 289h102l-200 -376h-125zM929 -20q-160 0 -306 62.5t-251.5 168t-168 251.5t-62.5 306t62.5 306t168 251.5t251.5 168t306 62.5q217 0 398.5 -107t285.5 -289l-105 -59q-88 152 -242 242.5t-337 90.5q-136 0 -259 -52.5t-212 -141.5
t-141.5 -212.5t-52.5 -259.5t52.5 -259.5t141.5 -212.5t212 -141.5t259 -52.5q183 0 337 90.5t242 242.5l105 -59q-104 -182 -285.5 -289t-398.5 -107z" />
    <glyph glyph-name="ccaron" unicode="&#x10d;" horiz-adv-x="1244" 
d="M602 1165l-200 376h102l162 -289l158 289h103l-200 -376h-125zM658 -20q-145 0 -267.5 71t-194 193.5t-71.5 267.5t71.5 267.5t194 193.5t267.5 71q172 0 309.5 -100t192.5 -258h-126q-51 108 -152.5 173t-223.5 65q-172 0 -293.5 -119t-121.5 -293t121.5 -293
t293.5 -119q122 0 223.5 65t152.5 173h126q-55 -158 -192.5 -258t-309.5 -100z" />
    <glyph glyph-name="Dcaron" unicode="&#x10e;" horiz-adv-x="1507" 
d="M535 1672l-200 376h103l161 -289l159 289h102l-200 -376h-125zM200 0v1536h399q157 0 299 -60.5t245 -163.5t163.5 -245t60.5 -299t-60.5 -299t-163.5 -245t-245 -163.5t-299 -60.5h-399zM323 123h273q133 0 253 49.5t206.5 135t137.5 205.5t51 255t-51 255t-137.5 205.5
t-206.5 135t-253 49.5h-273v-1290z" />
    <glyph glyph-name="dcaron" unicode="&#x10f;" horiz-adv-x="1625" 
d="M1070 850v1034h120v-1884h-120v174q-74 -90 -182 -142t-230 -52q-145 0 -267.5 71t-194 193.5t-71.5 267.5t71.5 267.5t194 193.5t267.5 71q122 0 230 -52t182 -142zM1492 1884h136l-217 -617h-93zM658 100q171 0 291.5 120t120.5 292t-120.5 292t-291.5 120
q-173 0 -294 -120t-121 -292t121 -292t294 -120z" />
    <glyph glyph-name="Dcroat" unicode="&#x110;" horiz-adv-x="1507" 
d="M599 1536q157 0 299 -60.5t245 -163.5t163.5 -245t60.5 -299t-60.5 -299t-163.5 -245t-245 -163.5t-299 -60.5h-399v709h-159v115h159v712h399zM596 123q133 0 253 49.5t206.5 135t137.5 205.5t51 255t-51 255t-137.5 205.5t-206.5 135t-253 49.5h-273v-589h284v-115
h-284v-586h273z" />
    <glyph glyph-name="dcroat" unicode="&#x111;" horiz-adv-x="1390" 
d="M1336 1475v-116h-146v-1359h-120v174q-74 -90 -182 -142t-230 -52q-145 0 -267.5 71t-194 193.5t-71.5 267.5t71.5 267.5t194 193.5t267.5 71q122 0 230 -52t182 -142v509h-299v116h299v409h120v-409h146zM658 100q171 0 291.5 120t120.5 292t-120.5 292t-291.5 120
q-173 0 -294 -120t-121 -292t121 -292t294 -120z" />
    <glyph glyph-name="Emacron" unicode="&#x112;" horiz-adv-x="1192" 
d="M891 1846v-87h-538v87h538zM1032 1416h-697v-589h610v-118h-610v-589h697v-120h-820v1536h820v-120z" />
    <glyph glyph-name="emacron" unicode="&#x113;" horiz-adv-x="1303" 
d="M932 1347v-87h-538v87h538zM1188 527v-28h-945q4 -167 125 -283t290 -116q129 0 233.5 71t150.5 187h125q-51 -167 -190.5 -272.5t-318.5 -105.5q-145 0 -267.5 71t-194 193.5t-71.5 267.5t71.5 267.5t194 193.5t267.5 71q142 0 262 -68t191.5 -186.5t76.5 -262.5z
M658 924q-147 0 -258 -88t-144 -227h801q-33 137 -144.5 226t-254.5 89z" />
    <glyph glyph-name="Edotaccent" unicode="&#x116;" horiz-adv-x="1192" 
d="M622 1708q-39 0 -67 27t-28 65q0 40 28 67t67 27q37 0 64.5 -27t27.5 -67q0 -38 -27.5 -65t-64.5 -27zM1032 1416h-697v-589h610v-118h-610v-589h697v-120h-820v1536h820v-120z" />
    <glyph glyph-name="edotaccent" unicode="&#x117;" horiz-adv-x="1303" 
d="M663 1208q-39 0 -67 27t-28 65q0 40 28 67.5t67 27.5q37 0 64.5 -27.5t27.5 -67.5q0 -38 -27.5 -65t-64.5 -27zM1188 527v-28h-945q4 -167 125 -283t290 -116q129 0 233.5 71t150.5 187h125q-51 -167 -190.5 -272.5t-318.5 -105.5q-145 0 -267.5 71t-194 193.5
t-71.5 267.5t71.5 267.5t194 193.5t267.5 71q142 0 262 -68t191.5 -186.5t76.5 -262.5zM658 924q-147 0 -258 -88t-144 -227h801q-33 137 -144.5 226t-254.5 89z" />
    <glyph glyph-name="Eogonek" unicode="&#x118;" horiz-adv-x="1192" 
d="M1132 -371l40 -62q-99 -99 -248 -99q-100 4 -157.5 59t-57.5 150t57 169t166 154h-720v1536h820v-120h-697v-589h610v-118h-610v-589h697v-120q-51 -34 -87.5 -63.5t-73.5 -69t-56 -85t-19 -94.5q0 -67 37 -106.5t107 -39.5q113 0 192 87z" />
    <glyph glyph-name="eogonek" unicode="&#x119;" horiz-adv-x="1303" 
d="M1188 527v-28h-945q4 -167 125 -283t290 -116q129 0 233.5 71t150.5 187h125q-34 -113 -112.5 -201t-184.5 -134q-148 -121 -148 -248q0 -67 36.5 -106.5t106.5 -39.5q113 0 192 87l41 -62q-99 -99 -248 -99q-100 4 -157.5 59t-57.5 150q0 119 102 221q-43 -5 -79 -5
q-145 0 -267.5 71t-194 193.5t-71.5 267.5t71.5 267.5t194 193.5t267.5 71q142 0 262 -68t191.5 -186.5t76.5 -262.5zM658 924q-147 0 -258 -88t-144 -227h801q-33 137 -144.5 226t-254.5 89z" />
    <glyph glyph-name="Ecaron" unicode="&#x11a;" horiz-adv-x="1192" 
d="M686 1672h-125l-200 376h102l162 -289l158 289h103zM1032 1416h-697v-589h610v-118h-610v-589h697v-120h-820v1536h820v-120z" />
    <glyph glyph-name="ecaron" unicode="&#x11b;" horiz-adv-x="1303" 
d="M727 1172h-125l-200 377h102l162 -289l158 289h103zM1188 527v-28h-945q4 -167 125 -283t290 -116q129 0 233.5 71t150.5 187h125q-51 -167 -190.5 -272.5t-318.5 -105.5q-145 0 -267.5 71t-194 193.5t-71.5 267.5t71.5 267.5t194 193.5t267.5 71q142 0 262 -68
t191.5 -186.5t76.5 -262.5zM658 924q-147 0 -258 -88t-144 -227h801q-33 137 -144.5 226t-254.5 89z" />
    <glyph glyph-name="Gbreve" unicode="&#x11e;" horiz-adv-x="1866" 
d="M934 1679q-142 0 -234.5 83.5t-92.5 216.5h79q0 -91 71.5 -155.5t176.5 -64.5q106 0 177.5 64.5t71.5 155.5h79q0 -133 -93 -216.5t-235 -83.5zM932 804h791v-36q0 -160 -62.5 -306t-168.5 -251.5t-252 -168t-306 -62.5q-161 0 -307.5 62.5t-251.5 168t-167 251.5
t-62 306t62 306t167 251.5t251.5 168t307.5 62.5q216 0 398 -107.5t286 -288.5l-108 -59q-86 152 -239.5 242.5t-336.5 90.5q-136 0 -259 -52.5t-212 -141.5t-141.5 -212.5t-52.5 -259.5t52.5 -259.5t141.5 -212.5t212 -141.5t259 -52.5q167 0 311.5 77t237 210.5
t112.5 296.5h-663v118z" />
    <glyph glyph-name="gbreve" unicode="&#x11f;" horiz-adv-x="1390" 
d="M658 1167q-142 0 -235 83.5t-93 216.5h80q0 -91 71.5 -155.5t176.5 -64.5q106 0 177 64.5t71 155.5h80q0 -133 -93 -216.5t-235 -83.5zM1070 1024h120v-1111q0 -145 -71 -267.5t-193.5 -194t-267.5 -71.5q-163 0 -296.5 90t-195.5 238l110 51q46 -116 150 -187t232 -71
q171 0 291.5 120.5t120.5 291.5v261q-74 -90 -182 -142t-230 -52q-145 0 -267.5 71t-194 193.5t-71.5 267.5q0 146 71.5 268.5t194 193t267.5 70.5q123 0 230.5 -51.5t181.5 -142.5v174zM658 100q171 0 291.5 120.5t120.5 291.5q0 172 -120.5 292t-291.5 120
q-173 0 -294 -120t-121 -292q0 -171 121.5 -291.5t293.5 -120.5z" />
    <glyph glyph-name="Gdotaccent" unicode="&#x120;" horiz-adv-x="1866" 
d="M934 1708q-38 0 -66 27t-28 65q0 40 27.5 67t66.5 27q38 0 65.5 -27t27.5 -67q0 -38 -28 -65t-65 -27zM932 804h791v-36q0 -160 -62.5 -306t-168.5 -251.5t-252 -168t-306 -62.5q-161 0 -307.5 62.5t-251.5 168t-167 251.5t-62 306t62 306t167 251.5t251.5 168
t307.5 62.5q216 0 398 -107.5t286 -288.5l-108 -59q-86 152 -239.5 242.5t-336.5 90.5q-136 0 -259 -52.5t-212 -141.5t-141.5 -212.5t-52.5 -259.5t52.5 -259.5t141.5 -212.5t212 -141.5t259 -52.5q167 0 311.5 77t237 210.5t112.5 296.5h-663v118z" />
    <glyph glyph-name="gdotaccent" unicode="&#x121;" horiz-adv-x="1390" 
d="M658 1196q-39 0 -67 27t-28 65q0 40 28 67t67 27q37 0 64.5 -27t27.5 -67q0 -38 -27.5 -65t-64.5 -27zM1070 1024h120v-1111q0 -145 -71 -267.5t-193.5 -194t-267.5 -71.5q-163 0 -296.5 90t-195.5 238l110 51q46 -116 150 -187t232 -71q171 0 291.5 120.5t120.5 291.5
v261q-74 -90 -182 -142t-230 -52q-145 0 -267.5 71t-194 193.5t-71.5 267.5q0 146 71.5 268.5t194 193t267.5 70.5q123 0 230.5 -51.5t181.5 -142.5v174zM658 100q171 0 291.5 120.5t120.5 291.5q0 172 -120.5 292t-291.5 120q-173 0 -294 -120t-121 -292
q0 -171 121.5 -291.5t293.5 -120.5z" />
    <glyph glyph-name="Gcommaaccent" unicode="&#x122;" horiz-adv-x="1866" 
d="M932 804h791v-36q0 -160 -62.5 -306t-168.5 -251.5t-252 -168t-306 -62.5q-161 0 -307.5 62.5t-251.5 168t-167 251.5t-62 306t62 306t167 251.5t251.5 168t307.5 62.5q216 0 398 -107.5t286 -288.5l-108 -59q-86 152 -239.5 242.5t-336.5 90.5q-136 0 -259 -52.5
t-212 -141.5t-141.5 -212.5t-52.5 -259.5t52.5 -259.5t141.5 -212.5t212 -141.5t259 -52.5q167 0 311.5 77t237 210.5t112.5 296.5h-663v118zM701 -494l159 371h149l-218 -371h-90z" />
    <glyph glyph-name="gcommaaccent" unicode="&#x123;" horiz-adv-x="1390" 
d="M888 1536l-158 -371h-149l218 371h89zM1070 1024h120v-1111q0 -145 -71 -267.5t-193.5 -194t-267.5 -71.5q-163 0 -296.5 90t-195.5 238l110 51q46 -116 150 -187t232 -71q171 0 291.5 120.5t120.5 291.5v261q-74 -90 -182 -142t-230 -52q-145 0 -267.5 71t-194 193.5
t-71.5 267.5q0 146 71.5 268.5t194 193t267.5 70.5q123 0 230.5 -51.5t181.5 -142.5v174zM658 100q171 0 291.5 120.5t120.5 291.5q0 172 -120.5 292t-291.5 120q-173 0 -294 -120t-121 -292q0 -171 121.5 -291.5t293.5 -120.5z" />
    <glyph glyph-name="Hbar" unicode="&#x126;" horiz-adv-x="1543" 
d="M1490 1236v-87h-146v-1149h-123v707h-898v-707h-123v1149h-151v87h151v300h123v-300h898v300h123v-300h146zM1221 829v320h-898v-320h898z" />
    <glyph glyph-name="hbar" unicode="&#x127;" horiz-adv-x="1139" 
d="M579 1044q156 0 266 -112.5t110 -273.5v-658h-118v658q0 113 -76.5 191t-184.5 78q-106 0 -181 -78t-75 -191v-658h-120v1370h-146v115h146v399h120v-399h300v-115h-300v-428q107 102 259 102z" />
    <glyph glyph-name="Imacron" unicode="&#x12a;" horiz-adv-x="545" 
d="M5 1759v87h538v-87h-538zM212 0v1536h123v-1536h-123z" />
    <glyph glyph-name="imacron" unicode="&#x12b;" horiz-adv-x="545" 
d="M5 1247v87h538v-87h-538zM212 0v1024h121v-1024h-121z" />
    <glyph glyph-name="Iogonek" unicode="&#x12e;" horiz-adv-x="545" 
d="M435 -371l41 -62q-99 -99 -248 -99q-100 4 -157.5 59t-57.5 150t57 169t166 154h-24v1536h123v-1536q-51 -34 -87.5 -63.5t-73 -69t-55.5 -85t-19 -94.5q0 -67 36.5 -106.5t106.5 -39.5q113 0 192 87z" />
    <glyph glyph-name="iogonek" unicode="&#x12f;" horiz-adv-x="545" 
d="M274 1196q-39 0 -67 27t-28 65q0 40 28 67t67 27q37 0 64.5 -27t27.5 -67q0 -38 -27.5 -65t-64.5 -27zM425 -371l41 -62q-99 -99 -248 -99q-100 4 -157.5 59t-57.5 150q0 66 31.5 125.5t75.5 102.5t115 95h-13v1024h121v-1024h-8q-51 -34 -87.5 -63.5t-73 -69t-55.5 -85
t-19 -94.5q0 -67 36.5 -106.5t106.5 -39.5q113 0 192 87z" />
    <glyph glyph-name="Idotaccent" unicode="&#x130;" horiz-adv-x="545" 
d="M274 1708q-39 0 -67 27t-28 65q0 40 28 67t67 27q37 0 64.5 -27t27.5 -67q0 -38 -27.5 -65t-64.5 -27zM212 0v1536h123v-1536h-123z" />
    <glyph glyph-name="dotlessi" unicode="&#x131;" horiz-adv-x="545" 
d="M212 0v1024h121v-1024h-121z" />
    <glyph glyph-name="Kcommaaccent" unicode="&#x136;" horiz-adv-x="1254" 
d="M532 829l735 -829h-171l-668 771h-105v-771h-123v1536h123v-648h102l648 648h169zM404 -494l159 371h149l-218 -371h-90z" />
    <glyph glyph-name="kcommaaccent" unicode="&#x137;" horiz-adv-x="1031" 
d="M215 0v1884h118v-1884h-118zM870 0l-527 573l486 451h164l-491 -453l535 -571h-167zM392 -494h-90l159 371h148z" />
    <glyph glyph-name="Lacute" unicode="&#x139;" horiz-adv-x="936" 
d="M573 2048l-276 -376h-90l218 376h148zM323 123h586v-123h-709v1536h123v-1413z" />
    <glyph glyph-name="lacute" unicode="&#x13a;" horiz-adv-x="519" 
d="M205 2020l217 376h149l-277 -376h-89zM200 0v1884h120v-1884h-120z" />
    <glyph glyph-name="Lcommaaccent" unicode="&#x13b;" horiz-adv-x="936" 
d="M323 123h586v-123h-709v1536h123v-1413zM320 -494l159 371h148l-217 -371h-90z" />
    <glyph glyph-name="lcommaaccent" unicode="&#x13c;" horiz-adv-x="519" 
d="M200 0v1884h120v-1884h-120zM115 -494h-89l158 371h149z" />
    <glyph glyph-name="Lcaron" unicode="&#x13d;" horiz-adv-x="936" 
d="M323 123h586v-123h-709v1536h123v-1413zM883 1536l-217 -617h-93l175 617h135z" />
    <glyph glyph-name="lcaron" unicode="&#x13e;" horiz-adv-x="755" 
d="M200 0v1884h120v-1884h-120zM540 1267h-92l174 617h136z" />
    <glyph glyph-name="ldot" unicode="&#x140;" horiz-adv-x="519" 
d="M200 0v1884h120v-1884h-120zM484 658q-33 0 -56.5 22.5t-23.5 56.5q0 33 23.5 56.5t56.5 23.5t57.5 -23.5t24.5 -56.5q0 -34 -24 -56.5t-58 -22.5z" />
    <glyph glyph-name="Lslash" unicode="&#x141;" horiz-adv-x="936" 
d="M323 123h586v-123h-709v635l-146 -156l-69 59l215 230v768h123v-635l145 156l70 -59l-215 -230v-645z" />
    <glyph glyph-name="lslash" unicode="&#x142;" horiz-adv-x="519" 
d="M535 1172l-215 -230v-942h-120v812l-149 -159l-69 59l218 233v939h120v-809l146 156z" />
    <glyph glyph-name="Nacute" unicode="&#x143;" horiz-adv-x="1623" 
d="M1116 2048l-276 -376h-90l218 376h148zM1300 1536h123v-1536h-107l-993 1318v-1318h-123v1536h107l993 -1318v1318z" />
    <glyph glyph-name="nacute" unicode="&#x144;" horiz-adv-x="1159" 
d="M901 1536l-276 -376h-90l218 376h148zM599 1044q99 0 185.5 -51t138.5 -140.5t52 -194.5v-658h-117v658q0 111 -79 190t-190 79t-190 -79t-79 -190v-658h-120v1024h120v-110q52 62 124.5 96t154.5 34z" />
    <glyph glyph-name="Ncommaaccent" unicode="&#x145;" horiz-adv-x="1623" 
d="M1300 1536h123v-1536h-107l-993 1318v-1318h-123v1536h107l993 -1318v1318zM586 -494l159 371h148l-217 -371h-90z" />
    <glyph glyph-name="ncommaaccent" unicode="&#x146;" horiz-adv-x="1159" 
d="M599 1044q99 0 185.5 -51t138.5 -140.5t52 -194.5v-658h-117v658q0 111 -79 190t-190 79t-190 -79t-79 -190v-658h-120v1024h120v-110q52 62 124.5 96t154.5 34zM358 -494l159 371h149l-218 -371h-90z" />
    <glyph glyph-name="Ncaron" unicode="&#x147;" horiz-adv-x="1623" 
d="M868 1672h-126l-199 376h102l161 -289l159 289h103zM1300 1536h123v-1536h-107l-993 1318v-1318h-123v1536h107l993 -1318v1318z" />
    <glyph glyph-name="ncaron" unicode="&#x148;" horiz-adv-x="1159" 
d="M653 1160h-126l-199 376h102l161 -289l159 289h102zM599 1044q99 0 185.5 -51t138.5 -140.5t52 -194.5v-658h-117v658q0 111 -79 190t-190 79t-190 -79t-79 -190v-658h-120v1024h120v-110q52 62 124.5 96t154.5 34z" />
    <glyph glyph-name="Eng" unicode="&#x14a;" horiz-adv-x="1623" 
d="M1300 1536h123v-1536v-233q0 -138 -62.5 -197.5t-193.5 -55.5v110q64 -6 101.5 29t37.5 122v238l-983 1305v-1318h-123v1536h107l993 -1318v1318z" />
    <glyph glyph-name="eng" unicode="&#x14b;" horiz-adv-x="1159" 
d="M599 1044q99 0 185.5 -51t138.5 -140.5t52 -194.5v-658v-274q0 -136 -64.5 -196.5t-193.5 -56.5v84q64 -6 102.5 30t38.5 121v305v645q0 111 -79 190t-190 79t-190 -79t-79 -190v-658h-120v1024h120v-110q52 62 124.5 96t154.5 34z" />
    <glyph glyph-name="Omacron" unicode="&#x14c;" horiz-adv-x="1858" 
d="M660 1759v87h538v-87h-538zM929 -20q-160 0 -306 62.5t-251.5 168t-168 251.5t-62.5 306t62.5 306t168 251.5t251.5 168t306 62.5t306 -62.5t252 -168t168.5 -251.5t62.5 -306t-62.5 -306t-168.5 -251.5t-252 -168t-306 -62.5zM929 102q182 0 335 89t242 242t89 335
t-89 335t-242 242t-335 89q-136 0 -259 -52.5t-212 -141.5t-141.5 -212.5t-52.5 -259.5t52.5 -259.5t141.5 -212.5t212 -141.5t259 -52.5z" />
    <glyph glyph-name="omacron" unicode="&#x14d;" horiz-adv-x="1313" 
d="M389 1247v87h538v-87h-538zM658 -20q-145 0 -267.5 71t-194 193.5t-71.5 267.5t71.5 267.5t194 193.5t267.5 71q220 0 376 -156t156 -376t-156 -376t-376 -156zM658 100q171 0 291.5 120t120.5 292t-120.5 292t-291.5 120q-173 0 -294 -120t-121 -292t121 -292t294 -120z
" />
    <glyph glyph-name="Ohungarumlaut" unicode="&#x150;" horiz-adv-x="1858" 
d="M701 1672l215 376h149l-274 -376h-90zM1034 1672l215 376h149l-274 -376h-90zM929 -20q-160 0 -306 62.5t-251.5 168t-168 251.5t-62.5 306t62.5 306t168 251.5t251.5 168t306 62.5t306 -62.5t252 -168t168.5 -251.5t62.5 -306t-62.5 -306t-168.5 -251.5t-252 -168
t-306 -62.5zM929 102q182 0 335 89t242 242t89 335t-89 335t-242 242t-335 89q-136 0 -259 -52.5t-212 -141.5t-141.5 -212.5t-52.5 -259.5t52.5 -259.5t141.5 -212.5t212 -141.5t259 -52.5z" />
    <glyph glyph-name="ohungarumlaut" unicode="&#x151;" horiz-adv-x="1313" 
d="M430 1160l215 376h149l-274 -376h-90zM763 1160l215 376h148l-274 -376h-89zM658 -20q-145 0 -267.5 71t-194 193.5t-71.5 267.5t71.5 267.5t194 193.5t267.5 71q220 0 376 -156t156 -376t-156 -376t-376 -156zM658 100q171 0 291.5 120t120.5 292t-120.5 292t-291.5 120
q-173 0 -294 -120t-121 -292t121 -292t294 -120z" />
    <glyph glyph-name="OE" unicode="&#x152;" horiz-adv-x="2142" 
d="M1981 1416h-698v-589h611v-118h-611v-589h698v-120h-803v20q-122 -40 -249 -40q-160 0 -306 62.5t-251.5 168t-168 251.5t-62.5 306t62.5 306t168 251.5t251.5 168t306 62.5q127 0 249 -40v20h803v-120zM932 100q127 0 246 48v1240q-119 48 -246 48q-138 0 -262.5 -52.5
t-214 -142t-142 -213t-52.5 -260.5t52.5 -260.5t142 -213t214 -142t262.5 -52.5z" />
    <glyph glyph-name="oe" unicode="&#x153;" horiz-adv-x="2252" 
d="M2138 527v-28h-945q4 -167 125 -283t290 -116q129 0 233.5 71t150.5 187h125q-51 -167 -190.5 -272.5t-318.5 -105.5q-153 0 -280.5 79.5t-193.5 211.5q-69 -133 -196 -212t-280 -79q-145 0 -267.5 71t-194 193.5t-71.5 267.5t71.5 267.5t194 193.5t267.5 71
q153 0 280 -79t196 -212q66 132 193.5 211.5t280.5 79.5q142 0 262 -68t191.5 -186.5t76.5 -262.5zM658 100q171 0 291.5 120t120.5 292t-120.5 292t-291.5 120q-173 0 -294 -120t-121 -292t121 -292t294 -120zM1608 924q-147 0 -258 -88t-144 -227h801q-33 137 -144.5 226
t-254.5 89z" />
    <glyph glyph-name="Racute" unicode="&#x154;" horiz-adv-x="1274" 
d="M947 2048l-276 -376h-90l218 376h148zM781 709l458 -709h-141l-443 704h-332v-704h-123v1536h524q175 0 297.5 -122.5t122.5 -297.5q0 -158 -104 -274t-259 -133zM323 822h394q129 0 216.5 84t87.5 210q0 128 -87 212.5t-217 84.5h-394v-591z" />
    <glyph glyph-name="racute" unicode="&#x155;" horiz-adv-x="768" 
d="M768 1536l-276 -376h-90l218 376h148zM320 865q57 83 147 131t199 48q48 0 84 -7v-123q-29 10 -84 10q-145 0 -245.5 -97.5t-100.5 -240.5v-586h-120v1024h120v-159z" />
    <glyph glyph-name="Rcommaaccent" unicode="&#x156;" horiz-adv-x="1274" 
d="M781 709l458 -709h-141l-443 704h-332v-704h-123v1536h524q175 0 297.5 -122.5t122.5 -297.5q0 -158 -104 -274t-259 -133zM323 822h394q129 0 216.5 84t87.5 210q0 128 -87 212.5t-217 84.5h-394v-591zM402 -494l159 371h148l-217 -371h-90z" />
    <glyph glyph-name="rcommaaccent" unicode="&#x157;" horiz-adv-x="768" 
d="M666 1044q48 0 84 -7v-123q-29 10 -84 10q-145 0 -245.5 -97.5t-100.5 -240.5v-586h-120v1024h120v-159q57 83 147 131t199 48zM26 -494l158 371h149l-218 -371h-89z" />
    <glyph glyph-name="Rcaron" unicode="&#x158;" horiz-adv-x="1274" 
d="M699 1672h-126l-199 376h102l161 -289l159 289h103zM781 709l458 -709h-141l-443 704h-332v-704h-123v1536h524q175 0 297.5 -122.5t122.5 -297.5q0 -158 -104 -274t-259 -133zM323 822h394q129 0 216.5 84t87.5 210q0 128 -87 212.5t-217 84.5h-394v-591z" />
    <glyph glyph-name="rcaron" unicode="&#x159;" horiz-adv-x="768" 
d="M520 1160h-126l-199 376h102l161 -289l159 289h102zM666 1044q48 0 84 -7v-123q-29 10 -84 10q-145 0 -245.5 -97.5t-100.5 -240.5v-586h-120v1024h120v-159q57 83 147 131t199 48z" />
    <glyph glyph-name="Sacute" unicode="&#x15a;" horiz-adv-x="1136" 
d="M532 1672l218 376h149l-277 -376h-90zM579 -20q-169 0 -301 84t-188 220l112 64q42 -111 142 -178.5t237 -67.5q146 0 244.5 76.5t98.5 208.5q0 65 -26 117.5t-70.5 88.5t-102 67t-121 57.5t-126.5 54.5t-120.5 64t-102 80t-70.5 108t-26 143q0 120 59 210t152.5 134.5
t205.5 44.5q124 0 228 -51.5t166 -134.5l-97 -80q-46 65 -123.5 104.5t-170.5 39.5q-124 0 -210.5 -67.5t-86.5 -191.5q0 -63 26 -114t70.5 -86.5t102 -65.5t121 -56.5t126.5 -54.5t120.5 -65t102 -82t70.5 -111.5t26 -147.5q0 -98 -38 -177.5t-103 -130t-149 -77.5
t-178 -27z" />
    <glyph glyph-name="sacute" unicode="&#x15b;" horiz-adv-x="855" 
d="M397 1160l217 376h149l-277 -376h-89zM445 -20q-118 0 -217.5 62t-130.5 153l115 46q15 -61 83 -102.5t150 -41.5q83 0 140.5 45.5t57.5 123.5q0 30 -11 55t-27 42.5t-46 35.5t-56.5 30t-69.5 29q-69 26 -117 52t-89 61.5t-61 83.5t-20 108q0 132 87 206.5t202 74.5
q90 0 170 -45t112 -108l-103 -56q-53 89 -174 89q-75 0 -124.5 -39t-49.5 -117q0 -32 11 -58t25.5 -43.5t46.5 -36t56 -29.5t71 -30q52 -21 83.5 -36t75 -43t68 -57t42.5 -73.5t18 -97.5q0 -123 -92.5 -203.5t-225.5 -80.5z" />
    <glyph glyph-name="Scedilla" unicode="&#x15e;" horiz-adv-x="1136" 
d="M1047 392q0 -127 -64 -221.5t-166 -141t-226 -49.5l-56 -123q109 23 185 -31t76 -154q0 -85 -58.5 -144.5t-143.5 -59.5q-68 0 -136.5 35.5t-99.5 86.5l70 34q25 -33 73.5 -56.5t92.5 -23.5q52 0 88.5 37t36.5 91q0 77 -62.5 108t-154.5 0l-64 43l79 159
q-149 15 -262.5 96.5t-164.5 205.5l112 64q42 -111 142 -178.5t237 -67.5q146 0 244.5 76.5t98.5 208.5q0 65 -26 117.5t-70.5 88.5t-102 67t-121 57.5t-126.5 54.5t-120.5 64t-102 80t-70.5 108t-26 143q0 120 59 210t152.5 134.5t205.5 44.5q124 0 228 -51.5t166 -134.5
l-97 -80q-46 65 -123.5 104.5t-170.5 39.5q-124 0 -210.5 -67.5t-86.5 -191.5q0 -63 26 -114t70.5 -86.5t102 -65.5t121 -56.5t126.5 -54.5t120.5 -65t102 -82t70.5 -111.5t26 -147.5z" />
    <glyph glyph-name="scedilla" unicode="&#x15f;" horiz-adv-x="855" 
d="M763 264q0 -115 -83 -194.5t-206 -89.5l-57 -123q109 23 185 -31t76 -154q0 -85 -58.5 -144.5t-143.5 -59.5q-68 0 -136 35t-99 87l69 34q25 -33 73.5 -56.5t92.5 -23.5q52 0 89 37t37 91q0 76 -63 107.5t-155 0.5l-64 43l79 159q-105 11 -190 71.5t-112 141.5l115 46
q15 -61 83 -102.5t150 -41.5q83 0 140.5 45.5t57.5 123.5q0 30 -11 55t-27 42.5t-46 35.5t-56.5 30t-69.5 29q-69 26 -117 52t-89 61.5t-61 83.5t-20 108q0 132 87 206.5t202 74.5q90 0 170 -45t112 -108l-103 -56q-53 89 -174 89q-75 0 -124.5 -39t-49.5 -117q0 -32 11 -58
t25.5 -43.5t46.5 -36t56 -29.5t71 -30q52 -21 83.5 -36t75 -43t68 -57t42.5 -73.5t18 -97.5z" />
    <glyph glyph-name="Scaron" unicode="&#x160;" horiz-adv-x="1136" 
d="M525 1672l-200 376h103l161 -289l159 289h102l-200 -376h-125zM579 -20q-169 0 -301 84t-188 220l112 64q42 -111 142 -178.5t237 -67.5q146 0 244.5 76.5t98.5 208.5q0 65 -26 117.5t-70.5 88.5t-102 67t-121 57.5t-126.5 54.5t-120.5 64t-102 80t-70.5 108t-26 143
q0 120 59 210t152.5 134.5t205.5 44.5q124 0 228 -51.5t166 -134.5l-97 -80q-46 65 -123.5 104.5t-170.5 39.5q-124 0 -210.5 -67.5t-86.5 -191.5q0 -63 26 -114t70.5 -86.5t102 -65.5t121 -56.5t126.5 -54.5t120.5 -65t102 -82t70.5 -111.5t26 -147.5q0 -98 -38 -177.5
t-103 -130t-149 -77.5t-178 -27z" />
    <glyph glyph-name="scaron" unicode="&#x161;" horiz-adv-x="855" 
d="M389 1160l-200 376h103l161 -289l159 289h102l-199 -376h-126zM445 -20q-118 0 -217.5 62t-130.5 153l115 46q15 -61 83 -102.5t150 -41.5q83 0 140.5 45.5t57.5 123.5q0 30 -11 55t-27 42.5t-46 35.5t-56.5 30t-69.5 29q-69 26 -117 52t-89 61.5t-61 83.5t-20 108
q0 132 87 206.5t202 74.5q90 0 170 -45t112 -108l-103 -56q-53 89 -174 89q-75 0 -124.5 -39t-49.5 -117q0 -32 11 -58t25.5 -43.5t46.5 -36t56 -29.5t71 -30q52 -21 83.5 -36t75 -43t68 -57t42.5 -73.5t18 -97.5q0 -123 -92.5 -203.5t-225.5 -80.5z" />
    <glyph glyph-name="uni0162" unicode="&#x162;" horiz-adv-x="1062" 
d="M591 0h-23l-66 -143q109 23 185 -31t76 -154q0 -85 -58.5 -144.5t-143.5 -59.5q-68 0 -136.5 35.5t-99.5 86.5l69 34q25 -33 74 -56.5t93 -23.5q52 0 88.5 37t36.5 91q0 76 -63 107.5t-155 0.5l-64 43l88 177h-24v1413h-432v123h988v-123h-433v-1413z" />
    <glyph glyph-name="uni0163" unicode="&#x163;" horiz-adv-x="734" 
d="M481 -143q109 23 185 -31t76 -154q0 -85 -58.5 -144.5t-143.5 -59.5q-68 0 -136 35t-99 87l69 34q25 -33 73.5 -56.5t92.5 -23.5q52 0 89 37t37 91q0 76 -63 107.5t-155 0.5l-64 43l79 162q-96 15 -160.5 89t-64.5 172v660h-171v118h171v445h120v-445h282v-118h-282v-645
q0 -72 47.5 -118t116.5 -46h115v-84q-34 -22 -97 -31z" />
    <glyph glyph-name="Tcaron" unicode="&#x164;" horiz-adv-x="1062" 
d="M594 1672h-126l-199 376h102l161 -289l159 289h103zM1024 1536v-123h-433v-1413h-123v1413h-432v123h988z" />
    <glyph glyph-name="tcaron" unicode="&#x165;" horiz-adv-x="898" 
d="M742 1720h136l-218 -617h-92zM358 1469v-445h282v-118h-282v-645q0 -72 47.5 -118t116.5 -46h115v-84q-51 -33 -128 -33q-111 0 -191 78.5t-80 187.5v660h-171v118h171v445h120z" />
    <glyph glyph-name="Tbar" unicode="&#x166;" horiz-adv-x="1062" 
d="M1024 1413h-433v-589h221v-115h-221v-709h-123v709h-222v115h222v589h-432v123h988v-123z" />
    <glyph glyph-name="tbar" unicode="&#x167;" horiz-adv-x="734" 
d="M640 906h-282v-338h274v-115h-274v-192q0 -72 47.5 -118t116.5 -46h115v-84q-51 -33 -128 -33q-111 0 -191 78.5t-80 187.5v207h-171v115h171v338h-171v118h171v445h120v-445h282v-118z" />
    <glyph glyph-name="Umacron" unicode="&#x16a;" horiz-adv-x="1507" 
d="M484 1759v87h537v-87h-537zM753 -20q-158 0 -286.5 68.5t-201.5 189.5t-73 269v1029h123v-1011q0 -180 126 -301.5t312 -121.5q188 0 314 121t126 302v1011h123v-1029q0 -225 -160.5 -376t-402.5 -151z" />
    <glyph glyph-name="umacron" unicode="&#x16b;" horiz-adv-x="1082" 
d="M276 1247v87h538v-87h-538zM540 -20q-165 0 -269.5 109t-104.5 282v653h118v-640q0 -125 73.5 -204.5t182.5 -79.5q112 0 185.5 79t73.5 205v640h117v-653q0 -172 -105.5 -281.5t-270.5 -109.5z" />
    <glyph glyph-name="Uring" unicode="&#x16e;" horiz-adv-x="1507" 
d="M753 1638q-82 0 -141 59.5t-59 140.5q0 82 58.5 141t141.5 59q82 0 140.5 -58.5t58.5 -141.5q0 -81 -58.5 -140.5t-140.5 -59.5zM753 1710q54 0 91 37t37 91t-37 92.5t-91 38.5t-90 -38.5t-36 -92.5t36 -91t90 -37zM753 -20q-158 0 -286.5 68.5t-201.5 189.5t-73 269
v1029h123v-1011q0 -180 126 -301.5t312 -121.5q188 0 314 121t126 302v1011h123v-1029q0 -225 -160.5 -376t-402.5 -151z" />
    <glyph glyph-name="uring" unicode="&#x16f;" horiz-adv-x="1082" 
d="M545 1126q-82 0 -140.5 59.5t-58.5 140.5q0 83 58.5 141.5t140.5 58.5q83 0 141.5 -59t58.5 -141q0 -81 -59 -140.5t-141 -59.5zM545 1198q54 0 91 37t37 91t-37 92.5t-91 38.5q-53 0 -89 -38t-36 -93q0 -54 35.5 -91t89.5 -37zM540 -20q-165 0 -269.5 109t-104.5 282
v653h118v-640q0 -125 73.5 -204.5t182.5 -79.5q112 0 185.5 79t73.5 205v640h117v-653q0 -172 -105.5 -281.5t-270.5 -109.5z" />
    <glyph glyph-name="Uhungarumlaut" unicode="&#x170;" horiz-adv-x="1507" 
d="M525 1672l215 376h148l-274 -376h-89zM858 1672l215 376h148l-274 -376h-89zM753 -20q-158 0 -286.5 68.5t-201.5 189.5t-73 269v1029h123v-1011q0 -180 126 -301.5t312 -121.5q188 0 314 121t126 302v1011h123v-1029q0 -225 -160.5 -376t-402.5 -151z" />
    <glyph glyph-name="uhungarumlaut" unicode="&#x171;" horiz-adv-x="1082" 
d="M317 1160l215 376h149l-274 -376h-90zM650 1160l215 376h149l-274 -376h-90zM540 -20q-165 0 -269.5 109t-104.5 282v653h118v-640q0 -125 73.5 -204.5t182.5 -79.5q112 0 185.5 79t73.5 205v640h117v-653q0 -172 -105.5 -281.5t-270.5 -109.5z" />
    <glyph glyph-name="Uogonek" unicode="&#x172;" horiz-adv-x="1507" 
d="M1193 1536h123v-1029q0 -167 -93 -298t-248 -189q-100 -70 -157.5 -140t-57.5 -159q0 -67 37 -106.5t107 -39.5q113 0 192 87l41 -61q-100 -100 -249 -100q-100 4 -157.5 59.5t-57.5 150.5q0 79 41.5 144.5t117.5 129.5q-43 -5 -79 -5q-158 0 -286.5 68.5t-201.5 189.5
t-73 269v1029h123v-1011q0 -180 126 -301.5t312 -121.5q188 0 314 121t126 302v1011z" />
    <glyph glyph-name="uogonek" unicode="&#x173;" horiz-adv-x="1082" 
d="M719 20q-85 -63 -133 -127.5t-48 -145.5q0 -67 36.5 -106.5t106.5 -39.5q113 0 192 87l41 -62q-100 -100 -248 -100q-100 4 -157.5 59.5t-57.5 150.5q0 70 32 128.5t93 117.5q-7 -2 -36 -2q-165 0 -269.5 109t-104.5 282v653h118v-640q0 -125 73.5 -204.5t182.5 -79.5
q112 0 185.5 79t73.5 205v640h117v-653q0 -119 -53 -212t-144 -139z" />
    <glyph glyph-name="Wcircumflex" unicode="&#x174;" horiz-adv-x="2106" 
d="M1057 1961l-161 -289h-102l199 376h126l199 -376h-102zM1974 1536h128l-489 -1536h-131l-430 1398l-427 -1398h-131l-491 1536h133l425 -1334l407 1334h125h44l409 -1334z" />
    <glyph glyph-name="wcircumflex" unicode="&#x175;" horiz-adv-x="1628" 
d="M817 1449l-162 -289h-102l200 376h125l200 -376h-103zM1464 1024h128l-350 -1024h-134l-291 860l-295 -860h-133l-353 1024h133l292 -883l297 883h115l297 -883z" />
    <glyph glyph-name="Ycircumflex" unicode="&#x176;" horiz-adv-x="1223" 
d="M614 1961l-161 -289h-102l199 376h126l200 -376h-103zM1208 1536l-535 -809v-727h-123v727l-535 809h154l445 -681l446 681h148z" />
    <glyph glyph-name="ycircumflex" unicode="&#x177;" horiz-adv-x="1029" 
d="M515 1449l-162 -289h-102l200 376h125l200 -376h-103zM858 1024h135l-658 -1638h-128l246 606l-417 1032h133l348 -883z" />
    <glyph glyph-name="Ydieresis" unicode="&#x178;" horiz-adv-x="1223" 
d="M438 1733q-39 0 -67 27t-28 65q0 40 28 67.5t67 27.5t66.5 -27.5t27.5 -67.5q0 -38 -28 -65t-66 -27zM788 1733q-38 0 -66 27t-28 65q0 40 27.5 67.5t66.5 27.5t67 -27.5t28 -67.5q0 -38 -28 -65t-67 -27zM1208 1536l-535 -809v-727h-123v727l-535 809h154l445 -681
l446 681h148z" />
    <glyph glyph-name="Zacute" unicode="&#x179;" horiz-adv-x="1372" 
d="M1001 2048l-277 -376h-89l217 376h149zM330 123h937v-123h-1159l898 1413h-850v123h1073z" />
    <glyph glyph-name="zacute" unicode="&#x17a;" horiz-adv-x="1075" 
d="M870 1536l-276 -376h-90l218 376h148zM323 120h655v-120h-881l645 904h-609v120h837z" />
    <glyph glyph-name="Zdotaccent" unicode="&#x17b;" horiz-adv-x="1372" 
d="M689 1708q-39 0 -67 27t-28 65q0 40 28 67t67 27q37 0 64.5 -27t27.5 -67q0 -38 -27.5 -65t-64.5 -27zM330 123h937v-123h-1159l898 1413h-850v123h1073z" />
    <glyph glyph-name="zdotaccent" unicode="&#x17c;" horiz-adv-x="1075" 
d="M558 1196q-39 0 -67 27t-28 65q0 40 28 67t67 27q37 0 64.5 -27t27.5 -67q0 -38 -27.5 -65t-64.5 -27zM323 120h655v-120h-881l645 904h-609v120h837z" />
    <glyph glyph-name="Zcaron" unicode="&#x17d;" horiz-adv-x="1372" 
d="M753 1672h-126l-199 376h102l161 -289l159 289h102zM330 123h937v-123h-1159l898 1413h-850v123h1073z" />
    <glyph glyph-name="zcaron" unicode="&#x17e;" horiz-adv-x="1075" 
d="M622 1160h-125l-200 376h102l162 -289l158 289h103zM323 120h655v-120h-881l645 904h-609v120h837z" />
    <glyph glyph-name="florin" unicode="&#x192;" horiz-adv-x="936" 
d="M735 1462q-79 0 -137.5 -52t-72.5 -133l-41 -253h292l-13 -97h-295l-227 -1439h-108l225 1439h-171l15 97h172l43 269q17 110 107 186.5t200 76.5q34 0 70 -9.5t56 -23.5l-13 -97q-41 36 -102 36z" />
    <glyph glyph-name="uni01CD" unicode="&#x1cd;" horiz-adv-x="1272" 
d="M701 1672h-125l-200 376h103l161 -289l159 289h102zM1126 0l-130 371h-717l-131 -371h-135l555 1536h136l556 -1536h-134zM320 489h635l-318 901z" />
    <glyph glyph-name="uni01CE" unicode="&#x1ce;" horiz-adv-x="1397" 
d="M722 1160h-126l-199 376h102l161 -289l159 289h103zM1300 97h70v-97q-31 -20 -77 -20q-91 0 -148.5 55t-71.5 149q-72 -95 -181 -149.5t-234 -54.5q-145 0 -267.5 71t-194 193.5t-71.5 267.5t71.5 267.5t194 193.5t267.5 71q122 0 230 -52.5t182 -144.5v177h120v-786
q0 -70 30 -105.5t80 -35.5zM658 100q171 0 291.5 120t120.5 292t-120.5 292t-291.5 120q-173 0 -294 -120t-121 -292t121 -292t294 -120z" />
    <glyph glyph-name="uni01CF" unicode="&#x1cf;" horiz-adv-x="545" 
d="M212 1672l-199 376h102l161 -289l159 289h103l-200 -376h-126zM212 0v1536h123v-1536h-123z" />
    <glyph glyph-name="uni01D0" unicode="&#x1d0;" horiz-adv-x="545" 
d="M212 1160l-199 376h102l161 -289l159 289h103l-200 -376h-126zM212 0v1024h121v-1024h-121z" />
    <glyph glyph-name="uni01D1" unicode="&#x1d1;" horiz-adv-x="1858" 
d="M868 1672l-200 376h103l161 -289l159 289h102l-200 -376h-125zM929 -20q-160 0 -306 62.5t-251.5 168t-168 251.5t-62.5 306t62.5 306t168 251.5t251.5 168t306 62.5t306 -62.5t252 -168t168.5 -251.5t62.5 -306t-62.5 -306t-168.5 -251.5t-252 -168t-306 -62.5zM929 102
q182 0 335 89t242 242t89 335t-89 335t-242 242t-335 89q-136 0 -259 -52.5t-212 -141.5t-141.5 -212.5t-52.5 -259.5t52.5 -259.5t141.5 -212.5t212 -141.5t259 -52.5z" />
    <glyph glyph-name="uni01D2" unicode="&#x1d2;" horiz-adv-x="1313" 
d="M596 1160l-199 376h102l161 -289l159 289h103l-200 -376h-126zM658 -20q-145 0 -267.5 71t-194 193.5t-71.5 267.5t71.5 267.5t194 193.5t267.5 71q220 0 376 -156t156 -376t-156 -376t-376 -156zM658 100q171 0 291.5 120t120.5 292t-120.5 292t-291.5 120
q-173 0 -294 -120t-121 -292t121 -292t294 -120z" />
    <glyph glyph-name="uni01D3" unicode="&#x1d3;" horiz-adv-x="1507" 
d="M691 1672l-199 376h102l161 -289l159 289h102l-199 -376h-126zM753 -20q-158 0 -286.5 68.5t-201.5 189.5t-73 269v1029h123v-1011q0 -180 126 -301.5t312 -121.5q188 0 314 121t126 302v1011h123v-1029q0 -225 -160.5 -376t-402.5 -151z" />
    <glyph glyph-name="uni01D4" unicode="&#x1d4;" horiz-adv-x="1082" 
d="M484 1160l-200 376h103l161 -289l159 289h102l-200 -376h-125zM540 -20q-165 0 -269.5 109t-104.5 282v653h118v-640q0 -125 73.5 -204.5t182.5 -79.5q112 0 185.5 79t73.5 205v640h117v-653q0 -172 -105.5 -281.5t-270.5 -109.5z" />
    <glyph glyph-name="Scommaaccent" unicode="&#x218;" horiz-adv-x="1136" 
d="M579 -20q-169 0 -301 84t-188 220l112 64q42 -111 142 -178.5t237 -67.5q146 0 244.5 76.5t98.5 208.5q0 65 -26 117.5t-70.5 88.5t-102 67t-121 57.5t-126.5 54.5t-120.5 64t-102 80t-70.5 108t-26 143q0 120 59 210t152.5 134.5t205.5 44.5q124 0 228 -51.5t166 -134.5
l-97 -80q-46 65 -123.5 104.5t-170.5 39.5q-124 0 -210.5 -67.5t-86.5 -191.5q0 -63 26 -114t70.5 -86.5t102 -65.5t121 -56.5t126.5 -54.5t120.5 -65t102 -82t70.5 -111.5t26 -147.5q0 -98 -38 -177.5t-103 -130t-149 -77.5t-178 -27zM420 -494h-90l159 371h148z" />
    <glyph glyph-name="scommaaccent" unicode="&#x219;" horiz-adv-x="855" 
d="M445 -20q-118 0 -217.5 62t-130.5 153l115 46q15 -61 83 -102.5t150 -41.5q83 0 140.5 45.5t57.5 123.5q0 30 -11 55t-27 42.5t-46 35.5t-56.5 30t-69.5 29q-69 26 -117 52t-89 61.5t-61 83.5t-20 108q0 132 87 206.5t202 74.5q90 0 170 -45t112 -108l-103 -56
q-53 89 -174 89q-75 0 -124.5 -39t-49.5 -117q0 -32 11 -58t25.5 -43.5t46.5 -36t56 -29.5t71 -30q52 -21 83.5 -36t75 -43t68 -57t42.5 -73.5t18 -97.5q0 -123 -92.5 -203.5t-225.5 -80.5zM302 -494h-90l159 371h149z" />
    <glyph glyph-name="uni021A" unicode="&#x21a;" horiz-adv-x="1062" 
d="M36 1536h988v-123h-433v-1413h-123v1413h-432v123zM297 -494l159 371h148l-217 -371h-90z" />
    <glyph glyph-name="uni021B" unicode="&#x21b;" horiz-adv-x="734" 
d="M640 906h-282v-645q0 -72 47.5 -118t116.5 -46h115v-84q-51 -33 -128 -33q-111 0 -191 78.5t-80 187.5v660h-171v118h171v445h120v-445h282v-118zM276 -494l159 371h149l-218 -371h-90z" />
    <glyph glyph-name="uni0237" unicode="&#x237;" horiz-adv-x="524" 
d="M54 -614q-34 0 -71 9.5t-57 23.5v89l115 -5q69 0 116.5 46t47.5 118v1357h118v-1372q0 -109 -79.5 -187.5t-189.5 -78.5z" />
    <glyph glyph-name="circumflex" unicode="&#x2c6;" horiz-adv-x="115" 
d="M220 1160h-102l199 376h126l200 -376h-103l-159 289z" />
    <glyph glyph-name="caron" unicode="&#x2c7;" horiz-adv-x="115" 
d="M317 1160l-199 376h102l161 -289l159 289h103l-200 -376h-126z" />
    <glyph glyph-name="breve" unicode="&#x2d8;" horiz-adv-x="135" 
d="M612 1167q-142 0 -235 83.5t-93 216.5h80q0 -91 71.5 -155.5t176.5 -64.5q106 0 177 64.5t71 155.5h80q0 -133 -93 -216.5t-235 -83.5z" />
    <glyph glyph-name="dotaccent" unicode="&#x2d9;" horiz-adv-x="115" 
d="M310 1196q-39 0 -67 27t-28 65q0 40 28 67t67 27q37 0 64.5 -27t27.5 -67q0 -38 -27.5 -65t-64.5 -27z" />
    <glyph glyph-name="ring" unicode="&#x2da;" horiz-adv-x="130" 
d="M205 1126q-82 0 -141 59.5t-59 140.5q0 82 58.5 141t141.5 59q82 0 140.5 -58.5t58.5 -141.5q0 -81 -58.5 -140.5t-140.5 -59.5zM205 1198q54 0 91 37t37 91t-37 92.5t-91 38.5t-90 -38.5t-36 -92.5t36 -91t90 -37z" />
    <glyph glyph-name="ogonek" unicode="&#x2db;" horiz-adv-x="115" 
d="M351 -532q-100 4 -157.5 59t-57.5 150q0 53 18.5 101t57.5 91.5t78 76.5t99 77l69 -23q-51 -34 -87.5 -63.5t-73 -69t-55.5 -85t-19 -94.5q0 -67 36.5 -106.5t106.5 -39.5q113 0 192 87l41 -62q-99 -99 -248 -99z" />
    <glyph glyph-name="tilde" unicode="&#x2dc;" horiz-adv-x="161" 
d="M571 1275q-113 0 -182 107q-42 67 -102 67q-53 0 -83 -45t-30 -116h-92q0 111 55 182t147 71q105 0 182 -107q42 -67 105 -67q52 0 82.5 42.5t30.5 118.5h92q0 -110 -55.5 -181.5t-149.5 -71.5z" />
    <glyph glyph-name="hungarumlaut" unicode="&#x2dd;" horiz-adv-x="115" 
d="M13 1160l217 376h149l-277 -376h-89z" />
    <glyph glyph-name="gravecomb" unicode="&#x300;" 
d="M-67 1160h-89l-277 376h149z" />
    <glyph glyph-name="acutecomb" unicode="&#x301;" 
d="M-497 1160l218 376h148l-276 -376h-90z" />
    <glyph glyph-name="uni0302" unicode="&#x302;" 
d="M-540 1160h-103l200 376h126l199 -376h-102l-159 289z" />
    <glyph glyph-name="tildecomb" unicode="&#x303;" 
d="M-289 1275q-113 0 -182 107q-42 67 -102 67q-53 0 -83 -45t-30 -116h-92q0 111 55 182t147 71q105 0 182 -107q42 -67 105 -67q52 0 82 42.5t30 118.5h93q0 -110 -55.5 -181.5t-149.5 -71.5z" />
    <glyph glyph-name="uni0304" unicode="&#x304;" 
d="M-678 1247v87h537v-87h-537z" />
    <glyph glyph-name="uni0306" unicode="&#x306;" 
d="M-714 1167q-142 0 -235 83.5t-93 216.5h79q0 -91 72 -155.5t177 -64.5q106 0 177 64.5t71 155.5h79q0 -133 -92.5 -216.5t-234.5 -83.5z" />
    <glyph glyph-name="uni0307" unicode="&#x307;" 
d="M-307 1196q-39 0 -67 27t-28 65q0 40 28 67t67 27q37 0 64.5 -27t27.5 -67q0 -38 -27.5 -65t-64.5 -27z" />
    <glyph glyph-name="uni0308" unicode="&#x308;" 
d="M-602 1221q-38 0 -66 27t-28 65q0 40 27.5 67.5t66.5 27.5t67 -27.5t28 -67.5q0 -38 -28 -65t-67 -27zM-251 1221q-39 0 -67 27t-28 65q0 40 28 67.5t67 27.5t67 -27.5t28 -67.5q0 -38 -28 -65t-67 -27z" />
    <glyph glyph-name="uni030A" unicode="&#x30a;" 
d="M-205 1126q-82 0 -140.5 59.5t-58.5 140.5q0 83 58.5 141.5t140.5 58.5q83 0 141.5 -59t58.5 -141q0 -81 -59 -140.5t-141 -59.5zM-205 1198q54 0 91 37t37 91t-37 92.5t-91 38.5q-53 0 -89 -38t-36 -93q0 -54 35.5 -91t89.5 -37z" />
    <glyph glyph-name="uni030B" unicode="&#x30b;" 
d="M-425 1160l215 376h149l-274 -376h-90zM-92 1160l215 376h148l-274 -376h-89z" />
    <glyph glyph-name="uni030C" unicode="&#x30c;" 
d="M-443 1160l-200 376h103l161 -289l159 289h102l-199 -376h-126z" />
    <glyph glyph-name="uni0312" unicode="&#x312;" 
d="M-138 1713h89l-158 -372h-149z" />
    <glyph glyph-name="dotbelowcomb" unicode="&#x323;" 
d="M-184 -512q-39 0 -67 27.5t-28 67.5q0 37 28.5 65.5t66.5 28.5q37 0 64.5 -28.5t27.5 -65.5q0 -40 -27.5 -67.5t-64.5 -27.5z" />
    <glyph glyph-name="uni0326" unicode="&#x326;" 
d="M-340 -274h-90l159 371h148z" />
    <glyph glyph-name="uni0327" unicode="&#x327;" 
d="M-294 -532q-68 0 -136.5 35.5t-99.5 86.5l69 34q25 -33 74 -56.5t93 -23.5q52 0 88.5 37t36.5 91q0 76 -63 107.5t-155 0.5l-64 43l87 177h77l-66 -143q109 23 185 -31t76 -154q0 -85 -58.5 -144.5t-143.5 -59.5z" />
    <glyph glyph-name="uni0328" unicode="&#x328;" 
d="M-271 -532q-100 4 -157.5 59t-57.5 150q0 53 18.5 101t57.5 91.5t78 76.5t99 77l69 -23q-51 -34 -87.5 -63.5t-73 -69t-55.5 -85t-19 -94.5q0 -67 36.5 -106.5t106.5 -39.5q113 0 192 87l41 -62q-99 -99 -248 -99z" />
    <glyph glyph-name="uni0335" unicode="&#x335;" 
d="M-945 484v115h566v-115h-566z" />
    <glyph glyph-name="uni0336" unicode="&#x336;" 
d="M-1536 489v87h1441v-87h-1441z" />
    <glyph glyph-name="uni0337" unicode="&#x337;" 
d="M-870 289l483 520l70 -59l-484 -520z" />
    <glyph glyph-name="uni0338" unicode="&#x338;" 
d="M-1231 -5l1121 1605l90 -59l-1119 -1602z" />
    <glyph glyph-name="uni0394" unicode="&#x394;" horiz-adv-x="1505" 
d="M819 1536l617 -1536h-136h-1159h-74l617 1536h135zM246 110h1011l-504 1285z" />
    <glyph glyph-name="uni03A9" unicode="&#x3a9;" horiz-adv-x="1884" 
d="M154 0v92h373v16q-146 110 -242 288.5t-96 399.5q0 154 57.5 291t157.5 235.5t241.5 156t301.5 57.5q163 0 304.5 -61t237 -162.5t149.5 -235t54 -278.5q0 -222 -101 -408.5t-239 -282.5v-16h376v-92h-576v67q82 41 155 107t133.5 155.5t96 208t35.5 248.5
q0 93 -25.5 185.5t-78 177.5t-125 151t-174.5 105t-219 39q-142 0 -263.5 -53.5t-203 -144t-127.5 -211t-46 -254.5q0 -125 36 -242.5t96 -207t133 -157.5t152 -107v-67h-573z" />
    <glyph glyph-name="uni03BC" unicode="&#x3bc;" horiz-adv-x="1282" 
d="M932 1024h118v-1024h-118v169q-55 -87 -145 -138t-196 -51q-89 0 -168.5 37t-133.5 103v-632h-94v1536h117v-630q0 -127 90.5 -217t217.5 -90q129 0 220.5 90t91.5 217v630z" />
    <glyph glyph-name="pi" unicode="&#x3c0;" horiz-adv-x="1456" 
d="M192 0q68 162 123 459t69 557q-218 0 -310 -33l-15 69q106 54 328 54h988l-11 -90h-222v-688q0 -227 38 -328h-115q-36 61 -36 307v709h-530q-12 -239 -69.5 -558.5t-124.5 -457.5h-113z" />
    <glyph glyph-name="Wgrave" unicode="&#x1e80;" horiz-adv-x="2106" 
d="M1111 1672h-90l-276 376h148zM1974 1536h128l-489 -1536h-131l-430 1398l-427 -1398h-131l-491 1536h133l425 -1334l407 1334h125h44l409 -1334z" />
    <glyph glyph-name="wgrave" unicode="&#x1e81;" horiz-adv-x="1628" 
d="M870 1160h-89l-277 376h149zM1464 1024h128l-350 -1024h-134l-291 860l-295 -860h-133l-353 1024h133l292 -883l297 883h115l297 -883z" />
    <glyph glyph-name="Wacute" unicode="&#x1e82;" horiz-adv-x="2106" 
d="M1370 2048l-277 -376h-89l217 376h149zM1974 1536h128l-489 -1536h-131l-430 1398l-427 -1398h-131l-491 1536h133l425 -1334l407 1334h125h44l409 -1334z" />
    <glyph glyph-name="wacute" unicode="&#x1e83;" horiz-adv-x="1628" 
d="M1129 1536l-277 -376h-89l217 376h149zM1464 1024h128l-350 -1024h-134l-291 860l-295 -860h-133l-353 1024h133l292 -883l297 883h115l297 -883z" />
    <glyph glyph-name="Wdieresis" unicode="&#x1e84;" horiz-adv-x="2106" 
d="M881 1733q-39 0 -67 27t-28 65q0 40 28 67.5t67 27.5t66.5 -27.5t27.5 -67.5q0 -38 -28 -65t-66 -27zM1231 1733q-38 0 -66 27t-28 65q0 40 27.5 67.5t66.5 27.5t67 -27.5t28 -67.5q0 -38 -28 -65t-67 -27zM1974 1536h128l-489 -1536h-131l-430 1398l-427 -1398h-131
l-491 1536h133l425 -1334l407 1334h125h44l409 -1334z" />
    <glyph glyph-name="wdieresis" unicode="&#x1e85;" horiz-adv-x="1628" 
d="M640 1221q-39 0 -67 27t-28 65q0 40 28 67.5t67 27.5t67 -27.5t28 -67.5q0 -38 -28 -65t-67 -27zM991 1221q-39 0 -67 27t-28 65q0 40 28 67.5t67 27.5t66.5 -27.5t27.5 -67.5q0 -38 -28 -65t-66 -27zM1464 1024h128l-350 -1024h-134l-291 860l-295 -860h-133l-353 1024
h133l292 -883l297 883h115l297 -883z" />
    <glyph glyph-name="Ygrave" unicode="&#x1ef2;" horiz-adv-x="1223" 
d="M668 1672h-89l-277 376h149zM1208 1536l-535 -809v-727h-123v727l-535 809h154l445 -681l446 681h148z" />
    <glyph glyph-name="ygrave" unicode="&#x1ef3;" horiz-adv-x="1029" 
d="M568 1160h-89l-277 376h149zM858 1024h135l-658 -1638h-128l246 606l-417 1032h133l348 -883z" />
    <glyph glyph-name="endash" unicode="&#x2013;" horiz-adv-x="1320" 
d="M148 474v117h1024v-117h-1024z" />
    <glyph glyph-name="emdash" unicode="&#x2014;" horiz-adv-x="2048" 
d="M0 474v117h2048v-117h-2048z" />
    <glyph glyph-name="quoteleft" unicode="&#x2018;" horiz-adv-x="453" 
d="M315 1556h92l-174 -616h-136z" />
    <glyph glyph-name="quoteright" unicode="&#x2019;" horiz-adv-x="337" 
d="M182 940h-92l174 616h135z" />
    <glyph glyph-name="quotesinglbase" unicode="&#x201a;" horiz-adv-x="460" 
d="M154 -397h-93l175 617h135z" />
    <glyph glyph-name="quotedblleft" unicode="&#x201c;" horiz-adv-x="768" 
d="M335 1556h93l-175 -616h-135zM645 1556h92l-174 -616h-135z" />
    <glyph glyph-name="quotedblright" unicode="&#x201d;" horiz-adv-x="773" 
d="M138 940h-92l174 616h136zM456 940h-92l174 616h135z" />
    <glyph glyph-name="quotedblbase" unicode="&#x201e;" horiz-adv-x="755" 
d="M148 -397h-92l174 617h136zM479 -397h-92l174 617h135z" />
    <glyph glyph-name="dagger" unicode="&#x2020;" horiz-adv-x="1402" 
d="M1106 950v-85h-366v-1213h-87v1213h-356v85h356v422h87v-422h366z" />
    <glyph glyph-name="daggerdbl" unicode="&#x2021;" horiz-adv-x="1402" 
d="M1106 865h-366v-701h366v-85h-366v-427h-87v427h-356v85h356v701h-356v85h356v422h87v-422h366v-85z" />
    <glyph glyph-name="bullet" unicode="&#x2022;" horiz-adv-x="1152" 
d="M576 353q-130 0 -225 93t-95 225q0 130 95.5 226t224.5 96t224.5 -96t95.5 -226q0 -132 -95 -225t-225 -93z" />
    <glyph glyph-name="ellipsis" unicode="&#x2026;" horiz-adv-x="1574" 
d="M264 -20q-46 0 -81 34t-35 81q0 45 35 78.5t81 33.5t80.5 -33.5t34.5 -78.5q0 -47 -34.5 -81t-80.5 -34zM804 -20q-46 0 -80.5 34t-34.5 81q0 45 34.5 78.5t80.5 33.5t80.5 -33.5t34.5 -78.5q0 -47 -34.5 -81t-80.5 -34zM1352 -20q-46 0 -81 34t-35 81q0 45 35 78.5
t81 33.5t80.5 -33.5t34.5 -78.5q0 -47 -34.5 -81t-80.5 -34z" />
    <glyph glyph-name="perthousand" unicode="&#x2030;" horiz-adv-x="2114" 
d="M412 947q-109 0 -186.5 90t-77.5 215t77.5 214.5t186.5 89.5q107 0 183 -89.5t76 -214.5t-76 -215t-183 -90zM159 0l1060 1536h128l-1060 -1536h-128zM412 1044q66 0 115 61.5t49 146.5t-49 146t-115 61q-69 0 -117.5 -60.5t-48.5 -146.5t48.5 -147t117.5 -61zM1096 -20
q-107 0 -184 89.5t-77 214.5t77 215t184 90q109 0 185 -90t76 -215t-76 -214.5t-185 -89.5zM1723 -20q-109 0 -186.5 89.5t-77.5 214.5t77.5 215t186.5 90q107 0 182.5 -90t75.5 -215t-75.5 -214.5t-182.5 -89.5zM1096 77q68 0 116 60.5t48 146.5t-48 147t-116 61t-116 -61
t-48 -147t48 -146.5t116 -60.5zM1720 77q68 0 116 60.5t48 146.5t-48 147t-116 61t-116 -61t-48 -147t48 -146.5t116 -60.5z" />
    <glyph glyph-name="guilsinglleft" unicode="&#x2039;" horiz-adv-x="727" 
d="M445 195l-309 376l309 376h111l-313 -376l313 -376h-111z" />
    <glyph glyph-name="guilsinglright" unicode="&#x203a;" horiz-adv-x="727" 
d="M174 195l310 376l-310 376h108l312 -376l-312 -376h-108z" />
    <glyph glyph-name="fraction" unicode="&#x2044;" horiz-adv-x="1100" 
d="M-33 0l1070 1536h97l-1073 -1536h-94z" />
    <glyph glyph-name="Euro" unicode="&#x20ac;" horiz-adv-x="1630" 
d="M963 102q129 0 249.5 50t213.5 140v-159q-101 -72 -222 -112.5t-241 -40.5q-268 0 -477 159t-281 409l-174 5l164 33q-21 95 -21 182q0 54 8 120l-151 3l158 31q52 274 270 454t504 180q119 0 235.5 -38t212.5 -107l-39 -121q-180 144 -409 144q-230 0 -407.5 -136.5
t-235.5 -350.5l215 41l735 -15l-530 -97l-433 10q-10 -48 -10 -118q0 -88 18 -156l177 36l668 -16l-487 -97l-338 10q68 -198 239.5 -320.5t388.5 -122.5z" />
    <glyph glyph-name="uni2113" unicode="&#x2113;" horiz-adv-x="1313" 
d="M704 -10q-98 0 -174.5 34.5t-123.5 93.5t-72 129.5t-29 149.5v25q-49 -33 -151 -115l-44 85q29 24 95.5 73.5t96.5 77.5v622q0 117 22 208.5t58 148.5t84.5 94t97.5 51.5t102 14.5q145 0 221 -102t76 -251q0 -200 -137.5 -401.5t-395.5 -425.5v-54q0 -89 26 -159
t69.5 -111t95.5 -62t109 -21q116 0 210.5 72.5t147.5 170.5l69 -56q-162 -292 -453 -292zM430 632q99 95 168 172t132.5 165.5t95.5 176t32 172.5q0 264 -200 264q-39 0 -77 -20.5t-73 -64t-56.5 -124.5t-21.5 -190v-551z" />
    <glyph glyph-name="trademark" unicode="&#x2122;" horiz-adv-x="1656" 
d="M113 1464v72h481v-72h-202v-650h-80v650h-199zM1357 1536h87v-722h-80v594l-279 -415l-276 407v-586h-82v722h87l271 -404z" />
    <glyph glyph-name="estimated" unicode="&#x212e;" horiz-adv-x="1973" 
d="M986 -18q-178 0 -340.5 62t-279.5 166.5t-186.5 249.5t-69.5 305q0 161 69.5 307.5t186.5 252.5t279.5 168.5t340.5 62.5t340 -62.5t279.5 -168.5t186.5 -252.5t69 -307.5v-20h-1418q-10 0 -10 -8v-430q0 -25 18 -48q105 -108 244 -170.5t291 -62.5q167 0 314 69.5
t251 191.5h126q-119 -141 -301 -223t-390 -82zM443 788h1088q8 0 8 16v430q0 33 -21 51q-107 104 -243.5 164.5t-288.5 60.5q-150 0 -288.5 -62t-244.5 -171q-20 -20 -20 -53v-420q0 -16 10 -16z" />
    <glyph glyph-name="partialdiff" unicode="&#x2202;" horiz-adv-x="1105" 
d="M381 1439q165 18 302 -78.5t215 -279.5t77 -410q-1 -181 -62.5 -330.5t-168.5 -236t-237 -86.5q-112 0 -196 46t-125 126t-44.5 188.5t45.5 233.5q42 116 114.5 198.5t159 121t186 35t195.5 -52.5q-49 218 -174 338.5t-287 96.5v90zM865 671q0 74 -7 138
q-117 73 -225.5 72t-200.5 -79.5t-145 -220.5q-47 -135 -36.5 -241t79.5 -170.5t177 -64.5q97 0 179 75.5t130 205.5t49 285z" />
    <glyph glyph-name="emptyset" unicode="&#x2205;" horiz-adv-x="1735" 
d="M1324 1006q156 -177 156 -410q0 -166 -82 -307t-223 -222.5t-307 -81.5q-239 0 -410 158l-89 -89l-44 43l90 90q-159 172 -159 409q0 166 82 307t223 223t307 82q238 0 409 -158l90 89l44 -46zM356 596q0 -194 128 -340l724 724q-146 128 -340 128q-140 0 -257.5 -68.5
t-186 -186t-68.5 -257.5zM868 84q140 0 257.5 68.5t186 186t68.5 257.5q0 192 -128 338l-725 -722q146 -128 341 -128z" />
    <glyph glyph-name="product" unicode="&#x220f;" horiz-adv-x="1546" 
d="M1416 1439v-90h-146v-1595h-90v1595h-811v-1595h-93v1595h-143v90h1283z" />
    <glyph glyph-name="summation" unicode="&#x2211;" horiz-adv-x="1587" 
d="M215 -243v61l776 781l-776 778v62h1157v-95h-988l737 -745l-737 -747h988v-95h-1157z" />
    <glyph glyph-name="minus" unicode="&#x2212;" horiz-adv-x="1395" 
d="M154 527v116h1090v-116h-1090z" />
    <glyph glyph-name="radical" unicode="&#x221a;" horiz-adv-x="1523" 
d="M545 -159l-240 738h-131v87h192l218 -666l745 1554l79 -33l-804 -1680h-59z" />
    <glyph glyph-name="infinity" unicode="&#x221e;" horiz-adv-x="1592" 
d="M422 312q-111 0 -187.5 81.5t-80.5 202.5q4 121 80.5 201.5t187.5 80.5q87 0 184 -56.5t190 -161.5q92 105 189.5 161.5t184.5 56.5q113 0 189 -79.5t80 -202.5q-4 -123 -80 -203.5t-189 -80.5q-86 0 -184 57t-190 161q-94 -104 -191 -161t-183 -57zM422 399
q140 0 318 197q-179 198 -318 198q-73 0 -126.5 -58t-57.5 -140q4 -82 57.5 -139.5t126.5 -57.5zM1170 399q75 0 127.5 57t56.5 140q-4 83 -56.5 140.5t-127.5 57.5q-69 0 -152 -52t-166 -146q83 -94 166 -145.5t152 -51.5z" />
    <glyph glyph-name="integral" unicode="&#x222b;" horiz-adv-x="980" 
d="M236 -387q-75 0 -113.5 53t-14.5 137h87q-19 -100 56 -100q28 0 50.5 20t28.5 54l251 1575q11 74 65 120t122 46q74 0 111.5 -53t13.5 -139h-84q14 102 -56 102q-29 0 -52.5 -20.5t-29.5 -55.5l-251 -1575q-11 -73 -65 -118.5t-119 -45.5z" />
    <glyph glyph-name="approxequal" unicode="&#x2248;" horiz-adv-x="1269" 
d="M858 655q-45 0 -84 12.5t-74 40.5t-53 46t-51 55q-49 55 -86.5 81t-89.5 26q-84 0 -136.5 -67t-50.5 -168h-92q-2 145 77.5 235t203.5 90q54 0 100 -21.5t76.5 -50t74.5 -79.5q30 -37 50.5 -56.5t54 -36.5t72.5 -17q83 0 137 65.5t52 167.5h90q2 -139 -74.5 -231
t-196.5 -92zM858 264q-45 0 -84.5 12.5t-73.5 39t-53.5 45.5t-50.5 54q-49 55 -86.5 81t-89.5 26q-84 0 -136.5 -67t-50.5 -166h-92q-2 143 77.5 234t203.5 91q54 0 100 -21t78 -51t73 -81q30 -37 50.5 -56.5t54 -36.5t72.5 -17q83 0 137 65.5t52 167.5h90
q2 -138 -74.5 -229t-196.5 -91z" />
    <glyph glyph-name="notequal" unicode="&#x2260;" horiz-adv-x="1536" 
d="M1382 691h-422l-253 -297h675v-84h-747l-261 -305h-90l261 305h-391v84h463l253 297h-716v85h788l218 253h89l-217 -253h350v-85z" />
    <glyph glyph-name="lessequal" unicode="&#x2264;" horiz-adv-x="1681" 
d="M1405 1375v-105l-1024 -497l1024 -497v-107l-1129 548v112zM276 0v79h1129v-79h-1129z" />
    <glyph glyph-name="greaterequal" unicode="&#x2265;" horiz-adv-x="1681" 
d="M276 1375l1129 -546v-112l-1129 -548v107l1024 497l-1024 497v105zM276 0v79h1129v-79h-1129z" />
    <glyph glyph-name="lozenge" unicode="&#x25ca;" horiz-adv-x="1666" 
d="M832 108l-617 614l617 619l617 -617zM835 246l476 478l-476 479l-479 -481z" />
    <glyph glyph-name="uniF8FF" unicode="&#xf8ff;" horiz-adv-x="1986" 
d="M993 0q-158 0 -302 62t-248 166t-166 248t-62 302t62 302.5t166 248.5t248 165.5t302 61.5q127 0 246 -39t214.5 -111t167.5 -168t111.5 -214.5t39.5 -245.5q0 -211 -104.5 -390t-284 -283.5t-390.5 -104.5zM993 74q143 0 273.5 56t225 150.5t150 224.5t55.5 273
t-55.5 273.5t-150 225t-225 150t-273.5 55.5t-273 -55.5t-224.5 -150t-150.5 -225t-56 -273.5t56 -273t150.5 -224.5t224.5 -150.5t273 -56zM1400 445q-14 0 -25 11l-297 297q-10 11 -10 26t10 25l297 297q11 11 26 11t25 -11q11 -10 11 -25.5t-11 -25.5l-269 -272l269 -271
q11 -10 10.5 -24.5t-10.5 -26.5q-7 -11 -26 -11zM586 445q-15 0 -26.5 10.5t-11.5 25.5v594q0 15 11.5 25.5t26.5 10.5t25.5 -10.5t10.5 -25.5v-594q0 -15 -10.5 -25.5t-25.5 -10.5zM993 445q-15 0 -26.5 10.5t-11.5 25.5v594q0 15 11.5 25.5t26.5 10.5t25.5 -10.5
t10.5 -25.5v-594q0 -15 -10.5 -25.5t-25.5 -10.5zM696 742q-15 0 -26.5 10.5t-11.5 25.5t11.5 25.5t26.5 10.5h187q15 0 25.5 -10.5t10.5 -25.5t-10.5 -25.5t-25.5 -10.5h-187z" />
    <glyph glyph-name="i.loclTRK" horiz-adv-x="545" 
d="M274 1196q-39 0 -67 27t-28 65q0 40 28 67t67 27q37 0 64.5 -27t27.5 -67q0 -38 -27.5 -65t-64.5 -27zM212 0v1024h121v-1024h-121z" />
    </font>
</defs>
</svg>
